<svg width="1444" height="108" viewBox="0 0 1444 108" fill="none" xmlns="http://www.w3.org/2000/svg">
<g clip-path="url(#clip0_2_3299)">
<path d="M206.47 53.0003H195.844H195.474C195.376 53.0003 195.278 53 195.181 52.9993C194.67 53.0084 194.159 52.9701 193.654 52.885C193.309 52.8202 192.975 52.7074 192.661 52.5498C192.038 52.2339 191.532 51.728 191.216 51.1053C191.059 50.7916 190.946 50.4573 190.881 50.1122C190.791 49.5592 190.752 48.999 190.766 48.4388V48.1455C190.766 48.0714 190.766 47.9967 190.766 47.9216V15.079C190.766 15.0038 190.766 14.9292 190.766 14.8551C190.766 14.7566 190.766 14.6588 190.766 14.5618C190.752 14.0016 190.791 13.4414 190.881 12.8884C190.946 12.5433 191.059 12.209 191.216 11.8953C191.532 11.2728 192.038 10.7669 192.661 10.451C192.974 10.2934 193.309 10.1806 193.654 10.1158C194.008 10.0513 194.367 10.0157 194.727 10.0093C194.99 10.0012 195.319 10.0003 195.618 10.0003H195.844H204.717C204.712 10.1895 204.704 10.3777 204.703 10.5693V10.7215V10.8643V11.0003H195.844H195.736H195.618C195.33 11.0003 195.011 11.0009 194.758 11.0088C194.452 11.0133 194.147 11.0429 193.846 11.0973C193.592 11.1442 193.346 11.2266 193.115 11.3422C192.68 11.5621 192.327 11.915 192.107 12.3494C191.992 12.5801 191.91 12.8258 191.863 13.0794C191.785 13.5705 191.753 14.0678 191.766 14.5649V14.8549V15.0788V47.9216V48.1421V48.438C191.753 48.934 191.785 49.4302 191.863 49.9203C191.91 50.1743 191.992 50.4205 192.108 50.6514C192.327 51.0859 192.68 51.4387 193.115 51.6585C193.346 51.774 193.592 51.8564 193.846 51.9033C194.289 51.9757 194.738 52.0077 195.188 51.9991L195.475 52.0003H195.844H205.536C205.781 52.3893 206.098 52.7285 206.469 53.0003H206.47ZM203.352 11.5866C203.594 11.5866 203.827 11.6829 203.998 11.8542C204.17 12.0256 204.266 12.258 204.266 12.5003C204.266 12.7426 204.17 12.975 203.998 13.1464C203.827 13.3177 203.594 13.414 203.352 13.414H199.18C198.937 13.414 198.705 13.3177 198.533 13.1464C198.362 12.975 198.266 12.7426 198.266 12.5003C198.266 12.258 198.362 12.0256 198.533 11.8542C198.705 11.6829 198.937 11.5866 199.18 11.5866H203.352ZM203.404 12.0503C203.315 12.0503 203.228 12.0767 203.154 12.1261C203.08 12.1756 203.023 12.2459 202.989 12.3281C202.955 12.4103 202.946 12.5008 202.963 12.5881C202.98 12.6754 203.023 12.7556 203.086 12.8185C203.149 12.8814 203.229 12.9243 203.317 12.9417C203.404 12.959 203.494 12.9501 203.577 12.9161C203.659 12.882 203.729 12.8243 203.779 12.7503C203.828 12.6763 203.854 12.5893 203.854 12.5003C203.854 12.381 203.807 12.2665 203.723 12.1821C203.638 12.0977 203.524 12.0503 203.404 12.0503ZM220.266 8.50031C220.266 8.74261 220.169 8.97498 219.998 9.14633C219.827 9.31767 219.594 9.41396 219.352 9.41401H215.18C214.937 9.41401 214.705 9.31774 214.533 9.14639C214.362 8.97504 214.266 8.74264 214.266 8.50031C214.266 8.25798 214.362 8.02558 214.533 7.85422C214.705 7.68287 214.937 7.58661 215.18 7.58661H219.352C219.594 7.58663 219.827 7.68291 219.998 7.85426C220.169 8.02561 220.266 8.258 220.266 8.50031ZM219.854 8.50031C219.854 8.41131 219.828 8.3243 219.778 8.2503C219.729 8.1763 219.659 8.11862 219.576 8.08456C219.494 8.0505 219.404 8.04159 219.316 8.05895C219.229 8.07632 219.149 8.11918 219.086 8.18211C219.023 8.24504 218.98 8.32523 218.963 8.41252C218.945 8.49981 218.954 8.59029 218.988 8.67252C219.022 8.75474 219.08 8.82502 219.154 8.87447C219.228 8.92392 219.315 8.95031 219.404 8.95031C219.523 8.95031 219.638 8.9029 219.722 8.81851C219.807 8.73412 219.854 8.61966 219.854 8.50031ZM228.766 10.8669V48.1337C228.766 48.2325 228.766 48.3304 228.765 48.4277C228.779 48.9892 228.741 49.5509 228.65 50.1052C228.585 50.4511 228.472 50.7861 228.314 51.1006C227.997 51.7249 227.49 52.2321 226.866 52.5485C226.551 52.7065 226.216 52.8197 225.87 52.8845C225.515 52.9492 225.155 52.9849 224.794 52.9913C224.532 52.9994 224.202 53.0003 223.904 53.0003H223.674H210.857H210.486C210.387 53.0003 210.289 53 210.192 52.9993C209.768 52.9997 209.345 52.9721 208.925 52.9169C208.838 52.9046 208.748 52.9015 208.661 52.8847C208.315 52.8199 207.98 52.7067 207.666 52.5487C207.385 52.4038 207.126 52.2191 206.897 52.0003C206.874 51.979 206.848 51.962 206.826 51.9403C206.58 51.6943 206.375 51.411 206.218 51.101C206.06 50.7865 205.946 50.4515 205.881 50.1056C205.79 49.5512 205.752 48.9894 205.766 48.4277C205.766 48.3304 205.766 48.2325 205.766 48.1337V10.8669C205.766 10.768 205.766 10.6701 205.766 10.5728C205.766 10.381 205.773 10.1909 205.778 10.0004C205.783 9.62987 205.817 9.26029 205.881 8.89531C205.946 8.54955 206.059 8.21462 206.218 7.90031C206.534 7.27578 207.041 6.76845 207.666 6.45211C207.98 6.29407 208.315 6.18096 208.661 6.11611C209.016 6.0514 209.376 6.01569 209.737 6.00931C209.999 6.00121 210.329 6.00031 210.628 6.00031H210.857H223.675H223.861H224.046C224.144 6.00031 224.242 6.00031 224.34 6.00131C224.852 5.99221 225.365 6.03057 225.87 6.11591C226.216 6.18077 226.551 6.29387 226.865 6.45191C227.49 6.76822 227.997 7.27563 228.314 7.90031C228.472 8.21475 228.585 8.54977 228.65 8.89561C228.741 9.44983 228.78 10.0114 228.766 10.5728V10.8669ZM227.766 10.8669V10.7181V10.5753C227.779 10.0773 227.747 9.57915 227.669 9.08711C227.622 8.83243 227.539 8.58565 227.423 8.35401C227.203 7.91789 226.849 7.56369 226.412 7.34311C226.181 7.22727 225.934 7.14463 225.68 7.09761C225.235 7.02502 224.784 6.99285 224.334 7.00151L224.045 7.00031H223.861H223.769H210.857H210.747H210.628C210.339 7.00031 210.021 7.00101 209.768 7.00881C209.461 7.01327 209.155 7.04297 208.852 7.09761C208.598 7.14466 208.351 7.22734 208.119 7.34321C207.683 7.5635 207.329 7.91739 207.109 8.35321C206.993 8.58508 206.91 8.83214 206.863 9.08711C206.811 9.38881 206.783 9.69416 206.778 10.0003C206.773 10.1873 206.767 10.3735 206.766 10.5761V10.724V10.8692V48.1337V48.2765V48.4252C206.753 48.9232 206.785 49.4213 206.863 49.9133C206.91 50.168 206.993 50.4149 207.109 50.6466C207.329 51.0826 207.683 51.4367 208.119 51.6573C208.351 51.7732 208.598 51.8559 208.852 51.903C208.872 51.9068 208.893 51.9066 208.912 51.9101C209.338 51.9752 209.768 52.0049 210.198 51.9991L210.486 52.0001H210.857H223.785H223.904C224.193 52.0001 224.511 51.9994 224.764 51.9916C225.071 51.987 225.377 51.9573 225.679 51.9028C225.934 51.8558 226.181 51.7731 226.413 51.6572C226.848 51.4365 227.202 51.0824 227.423 50.6466C227.539 50.4148 227.621 50.1677 227.668 49.9128C227.747 49.4207 227.779 48.9224 227.766 48.4243V48.2825V48.1312V10.8669Z" fill="#1D1D1F"/>
</g>
<path d="M173.191 68.4648C173.578 68.4648 173.894 68.1484 173.894 67.7617C173.894 67.375 173.578 67.0586 173.191 67.0586C172.804 67.0586 172.488 67.375 172.488 67.7617C172.488 68.1484 172.804 68.4648 173.191 68.4648ZM172.675 76H173.695V69.6836H172.675V76ZM175.626 76H176.68V72.9824H178.813C180.401 72.9824 181.526 71.8633 181.526 70.2578V70.2461C181.526 68.6406 180.401 67.5449 178.813 67.5449H175.626V76ZM178.544 68.4824C179.751 68.4824 180.448 69.1445 180.448 70.2578V70.2695C180.448 71.3828 179.751 72.0449 178.544 72.0449H176.68V68.4824H178.544ZM183.064 76H184.084V72.2617C184.084 71.1543 184.723 70.4746 185.73 70.4746C186.738 70.4746 187.207 71.0195 187.207 72.1562V76H188.226V71.9102C188.226 70.4102 187.435 69.5723 186.017 69.5723C185.086 69.5723 184.494 69.9648 184.178 70.6328H184.084V67.1758H183.064V76ZM192.548 76.1113C194.347 76.1113 195.46 74.8691 195.46 72.8477V72.8359C195.46 70.8086 194.347 69.5723 192.548 69.5723C190.749 69.5723 189.636 70.8086 189.636 72.8359V72.8477C189.636 74.8691 190.749 76.1113 192.548 76.1113ZM192.548 75.209C191.353 75.209 190.679 74.3359 190.679 72.8477V72.8359C190.679 71.3418 191.353 70.4746 192.548 70.4746C193.743 70.4746 194.417 71.3418 194.417 72.8359V72.8477C194.417 74.3359 193.743 75.209 192.548 75.209ZM196.922 76H197.942V72.2617C197.942 71.1543 198.58 70.4746 199.588 70.4746C200.596 70.4746 201.065 71.0195 201.065 72.1562V76H202.084V71.9102C202.084 70.4102 201.293 69.5723 199.875 69.5723C198.944 69.5723 198.352 69.9648 198.035 70.6328H197.942V69.6836H196.922V76ZM206.388 76.1113C207.876 76.1113 208.779 75.2676 208.995 74.4121L209.007 74.3652H207.988L207.964 74.418C207.794 74.7988 207.267 75.2031 206.411 75.2031C205.286 75.2031 204.566 74.4414 204.536 73.1348H209.083V72.7363C209.083 70.8496 208.04 69.5723 206.324 69.5723C204.607 69.5723 203.493 70.9082 203.493 72.8594V72.8652C203.493 74.8457 204.583 76.1113 206.388 76.1113ZM206.318 70.4805C207.249 70.4805 207.941 71.0723 208.046 72.3203H204.554C204.665 71.1191 205.38 70.4805 206.318 70.4805ZM215.863 76H216.917V67.5449H215.869L213.619 69.1621V70.2754L215.769 68.7168H215.863V76ZM223.102 76H224.133V74.248H225.335V73.3047H224.133V67.5449H222.604C221.421 69.3086 220.126 71.3711 218.983 73.2871V74.248H223.102V76ZM220.061 73.3105V73.2402C220.981 71.6875 222.089 69.9414 223.038 68.5234H223.108V73.3105H220.061ZM230.233 76H231.288V72.9824H233.421C235.009 72.9824 236.134 71.8633 236.134 70.2578V70.2461C236.134 68.6406 235.009 67.5449 233.421 67.5449H230.233V76ZM233.151 68.4824C234.358 68.4824 235.056 69.1445 235.056 70.2578V70.2695C235.056 71.3828 234.358 72.0449 233.151 72.0449H231.288V68.4824H233.151ZM237.613 76H238.633V72.0859C238.633 71.1602 239.324 70.5449 240.297 70.5449C240.52 70.5449 240.713 70.5684 240.924 70.6035V69.6133C240.824 69.5957 240.607 69.5723 240.414 69.5723C239.559 69.5723 238.967 69.959 238.727 70.6211H238.633V69.6836H237.613V76ZM244.484 76.1113C246.282 76.1113 247.396 74.8691 247.396 72.8477V72.8359C247.396 70.8086 246.282 69.5723 244.484 69.5723C242.685 69.5723 241.571 70.8086 241.571 72.8359V72.8477C241.571 74.8691 242.685 76.1113 244.484 76.1113ZM244.484 75.209C243.288 75.209 242.614 74.3359 242.614 72.8477V72.8359C242.614 71.3418 243.288 70.4746 244.484 70.4746C245.679 70.4746 246.353 71.3418 246.353 72.8359V72.8477C246.353 74.3359 245.679 75.209 244.484 75.209Z" fill="#1D1D1F"/>
<path d="M200.397 90H201.266V84.5361H201.344L205.167 90H206.022V82.9541H205.153V88.4375H205.075L201.251 82.9541H200.397V90ZM209.78 90.0928C211.02 90.0928 211.772 89.3896 211.953 88.6768L211.962 88.6377H211.113L211.093 88.6816C210.952 88.999 210.512 89.3359 209.799 89.3359C208.862 89.3359 208.261 88.7012 208.237 87.6123H212.026V87.2803C212.026 85.708 211.157 84.6436 209.726 84.6436C208.295 84.6436 207.368 85.7568 207.368 87.3828V87.3877C207.368 89.0381 208.276 90.0928 209.78 90.0928ZM209.721 85.4004C210.497 85.4004 211.074 85.8936 211.162 86.9336H208.251C208.344 85.9326 208.94 85.4004 209.721 85.4004ZM214.28 90H215.129L216.301 85.9277H216.379L217.556 90H218.411L219.885 84.7363H219.041L218.005 88.9453H217.927L216.75 84.7363H215.945L214.768 88.9453H214.69L213.655 84.7363H212.805L214.28 90Z" fill="#BF4800"/>
<g clip-path="url(#clip1_2_3299)">
<path d="M310.718 52H301.86H301.532C301.093 52.0109 300.654 51.9818 300.221 51.913C299.995 51.8713 299.776 51.7981 299.571 51.6955C299.187 51.5012 298.875 51.1894 298.681 50.8055C298.578 50.6001 298.505 50.3813 298.463 50.1555C298.422 49.9349 298.398 49.7116 298.389 49.4874C298.377 49.2339 298.376 48.9596 298.376 48.6984V14.2191C298.376 13.9581 298.377 13.6837 298.389 13.4291C298.398 13.2057 298.422 12.9831 298.463 12.7631C298.505 12.5372 298.578 12.3182 298.681 12.1125C298.875 11.7286 299.187 11.4168 299.571 11.2225C299.776 11.1198 299.995 11.0465 300.221 11.0048C300.494 10.9557 300.77 10.9289 301.047 10.9248C301.279 10.9176 301.57 10.9171 301.835 10.9171H302.242H303.255C303.294 10.9171 303.333 10.9248 303.37 10.9398C303.406 10.9549 303.439 10.977 303.467 11.0048C303.495 11.0327 303.517 11.0658 303.533 11.1022C303.548 11.1387 303.555 11.1777 303.555 11.2171V11.6071C303.556 11.8726 303.662 12.1271 303.85 12.3145C304.038 12.502 304.293 12.607 304.558 12.6066H309.876V10.8353V10.4364C309.876 10.2646 309.883 10.1747 309.886 10.0001H302.042L301.834 10C301.56 10 301.256 10.0007 301.015 10.0082C300.687 9.98706 300.357 9.99221 300.029 10.0236C299.712 10.0831 299.404 10.1868 299.116 10.3316C298.544 10.6217 298.079 11.0866 297.789 11.6588C297.644 11.9471 297.541 12.2543 297.481 12.5713C297.431 12.8388 297.401 13.1095 297.39 13.3813C297.377 13.6498 297.376 13.9407 297.375 14.2173V14.5843V48.3331V48.7003C297.375 48.9767 297.377 49.2676 297.39 49.5362C297.401 49.8081 297.431 50.0788 297.481 50.3462C297.541 50.6633 297.644 50.9705 297.789 51.2588C298.079 51.831 298.544 52.2958 299.116 52.586C299.405 52.7308 299.712 52.8345 300.029 52.894C300.524 52.976 301.026 53.0115 301.528 53C301.638 53 301.748 53 301.86 53H311.66C311.287 52.7277 310.967 52.3887 310.718 52H310.718ZM305.754 10.4194C305.754 10.3842 305.768 10.3505 305.793 10.3256C305.818 10.3007 305.851 10.2867 305.887 10.2866H308.971C309.006 10.2867 309.04 10.3007 309.065 10.3256C309.09 10.3504 309.104 10.3842 309.104 10.4194V10.44C309.104 10.4753 309.09 10.5091 309.065 10.534C309.04 10.5589 309.006 10.5729 308.971 10.5729H305.887C305.851 10.5729 305.818 10.5589 305.793 10.534C305.768 10.5091 305.754 10.4753 305.754 10.44V10.4194ZM304.218 11.3C304.262 11.2265 304.326 11.1667 304.402 11.1273C304.479 11.0879 304.565 11.0704 304.65 11.0767C304.763 11.0861 304.868 11.1374 304.944 11.2205C305.02 11.3035 305.063 11.4123 305.063 11.5252C305.063 11.6381 305.02 11.7468 304.944 11.8299C304.868 11.913 304.763 11.9643 304.65 11.9736C304.568 11.9816 304.485 11.9666 304.411 11.9305C304.336 11.8944 304.273 11.8384 304.228 11.7688C304.184 11.6992 304.159 11.6186 304.157 11.5359C304.155 11.4532 304.176 11.3716 304.218 11.3ZM333.375 10.688C333.374 10.3862 333.373 10.0687 333.359 9.77574C333.347 9.4791 333.314 9.18369 333.259 8.89184C333.195 8.54633 333.082 8.21163 332.924 7.89754C332.608 7.27392 332.101 6.76733 331.478 6.45144C331.163 6.29359 330.829 6.18059 330.483 6.11574C329.938 6.026 329.386 5.98743 328.834 6.00054C328.689 6.00054 328.542 6.00054 328.394 6.00054H316.46H316.234C315.935 6.00054 315.604 6.00144 315.342 6.00954C314.981 6.01598 314.622 6.05166 314.267 6.11624C313.921 6.18105 313.586 6.29405 313.272 6.45194C312.649 6.76783 312.142 7.27442 311.826 7.89804C311.668 8.21213 311.555 8.54683 311.491 8.89234C311.436 9.18417 311.403 9.47959 311.391 9.77624C311.385 9.90204 311.387 10.0362 311.384 10.1679C311.381 10.3428 311.375 10.5163 311.375 10.6885V11.0857V47.9157C311.375 48.0499 311.375 48.1823 311.375 48.3129C311.376 48.6147 311.377 48.9322 311.391 49.2251C311.403 49.5219 311.436 49.8173 311.491 50.1092C311.555 50.4547 311.668 50.7894 311.826 51.1034C311.983 51.4132 312.189 51.6961 312.434 51.9418C312.462 51.9693 312.494 51.9908 312.523 52.0173C312.747 52.2289 312.999 52.4082 313.273 52.5497C313.587 52.7075 313.921 52.8205 314.267 52.8852C314.586 52.9426 314.908 52.9757 315.232 52.9842C315.459 52.9935 315.687 52.9994 315.916 53.0003C316.023 53.0008 316.131 53.0008 316.24 53.0003H328.29H328.518C328.817 53.0003 329.146 52.9994 329.409 52.9913C329.769 52.985 330.129 52.9493 330.484 52.8846C330.829 52.8198 331.164 52.7069 331.478 52.5491C332.102 52.233 332.608 51.7264 332.924 51.1028C333.082 50.7888 333.195 50.4541 333.26 50.1086C333.314 49.8167 333.347 49.5213 333.359 49.2245C333.373 48.9316 333.375 48.6145 333.375 48.3123C333.375 48.1815 333.375 48.0491 333.375 47.9151V11.0852C333.375 10.951 333.375 10.8189 333.375 10.688ZM320.646 6.59284C320.646 6.55763 320.66 6.52387 320.685 6.49897C320.71 6.47407 320.744 6.46007 320.779 6.46004H323.863C323.899 6.4601 323.932 6.4741 323.957 6.499C323.982 6.52389 323.996 6.55764 323.996 6.59284V6.61364C323.996 6.64887 323.982 6.68264 323.957 6.70755C323.932 6.73247 323.899 6.74649 323.863 6.74654H320.779C320.744 6.74652 320.71 6.7325 320.685 6.70758C320.66 6.68266 320.646 6.64887 320.646 6.61364V6.59284ZM319.16 7.43054C319.201 7.36222 319.259 7.30566 319.329 7.26628C319.398 7.22689 319.477 7.20602 319.557 7.20564L319.593 7.20724C319.705 7.21661 319.81 7.26791 319.886 7.35097C319.963 7.43404 320.005 7.54281 320.005 7.65569C320.005 7.76858 319.963 7.87735 319.886 7.96041C319.81 8.04348 319.705 8.09478 319.593 8.10414L319.557 8.10574C319.477 8.10701 319.399 8.08712 319.329 8.04812C319.26 8.00912 319.202 7.95241 319.162 7.88376C319.121 7.81511 319.1 7.73698 319.1 7.65736C319.099 7.57774 319.12 7.49947 319.16 7.43054H319.16ZM332.375 47.9148V48.3104C332.375 48.5967 332.372 48.8979 332.358 49.1764C332.349 49.4248 332.322 49.6721 332.277 49.9164C332.23 50.1708 332.147 50.4173 332.031 50.6486C331.811 51.0836 331.458 51.4368 331.023 51.6567C330.792 51.7724 330.545 51.855 330.291 51.9018C329.989 51.9564 329.684 51.9861 329.377 51.9905C329.124 51.9983 328.806 52.0005 328.517 52.0005H316.24L315.92 52C315.679 51.9991 315.444 51.9933 315.214 51.9827C314.961 51.9739 314.708 51.9469 314.459 51.9017C314.204 51.8548 313.958 51.7724 313.727 51.6567C313.292 51.4365 312.938 51.0832 312.718 50.6481C312.603 50.4168 312.52 50.1703 312.473 49.9158C312.428 49.6715 312.4 49.4242 312.391 49.1758C312.378 48.8979 312.375 48.5967 312.375 48.31V47.8714V11.0852V10.69C312.375 10.5174 312.382 10.343 312.385 10.1678C312.388 10.0524 312.386 9.93454 312.391 9.82394C312.4 9.5756 312.428 9.32825 312.473 9.08394C312.52 8.82949 312.603 8.58294 312.719 8.35164C312.938 7.91666 313.292 7.56343 313.727 7.34364C313.958 7.22798 314.204 7.14544 314.459 7.09844C314.76 7.04404 315.066 7.01441 315.373 7.00984C315.626 7.00204 315.945 7.00134 316.234 7.00134H316.351H317.202V7.00194H318.146C318.186 7.00184 318.225 7.00952 318.261 7.02455C318.298 7.03958 318.331 7.06166 318.359 7.08953C318.387 7.1174 318.409 7.1505 318.424 7.18695C318.439 7.2234 318.447 7.26248 318.447 7.30194V7.69194C318.447 7.82343 318.473 7.95361 318.523 8.07504C318.574 8.19647 318.648 8.30677 318.741 8.39964C318.834 8.4925 318.944 8.56612 319.066 8.61627C319.188 8.66643 319.318 8.69214 319.449 8.69194H325.249C325.513 8.69231 325.766 8.5889 325.953 8.40412C326.141 8.21934 326.248 7.96807 326.252 7.70474L326.257 7.29894C326.258 7.21997 326.29 7.14462 326.346 7.08919C326.403 7.03376 326.478 7.00271 326.557 7.00274H327.574V7.00124H328.393H328.83C329.319 6.98908 329.808 7.02141 330.291 7.09784C330.545 7.14478 330.792 7.22733 331.023 7.34304C331.458 7.56309 331.811 7.91646 332.031 8.35154C332.147 8.58265 332.23 8.82895 332.277 9.08314C332.322 9.32748 332.349 9.57481 332.358 9.82314C332.372 10.1011 332.375 10.4024 332.375 10.689V11.1276V47.9148Z" fill="#1D1D1F"/>
</g>
<path d="M289.805 68.4648C290.191 68.4648 290.508 68.1484 290.508 67.7617C290.508 67.375 290.191 67.0586 289.805 67.0586C289.418 67.0586 289.101 67.375 289.101 67.7617C289.101 68.1484 289.418 68.4648 289.805 68.4648ZM289.289 76H290.309V69.6836H289.289V76ZM292.239 76H293.294V72.9824H295.427C297.015 72.9824 298.14 71.8633 298.14 70.2578V70.2461C298.14 68.6406 297.015 67.5449 295.427 67.5449H292.239V76ZM295.157 68.4824C296.364 68.4824 297.062 69.1445 297.062 70.2578V70.2695C297.062 71.3828 296.364 72.0449 295.157 72.0449H293.294V68.4824H295.157ZM299.678 76H300.697V72.2617C300.697 71.1543 301.336 70.4746 302.344 70.4746C303.352 70.4746 303.82 71.0195 303.82 72.1562V76H304.84V71.9102C304.84 70.4102 304.049 69.5723 302.631 69.5723C301.699 69.5723 301.108 69.9648 300.791 70.6328H300.697V67.1758H299.678V76ZM309.161 76.1113C310.96 76.1113 312.074 74.8691 312.074 72.8477V72.8359C312.074 70.8086 310.96 69.5723 309.161 69.5723C307.363 69.5723 306.249 70.8086 306.249 72.8359V72.8477C306.249 74.8691 307.363 76.1113 309.161 76.1113ZM309.161 75.209C307.966 75.209 307.292 74.3359 307.292 72.8477V72.8359C307.292 71.3418 307.966 70.4746 309.161 70.4746C310.357 70.4746 311.031 71.3418 311.031 72.8359V72.8477C311.031 74.3359 310.357 75.209 309.161 75.209ZM313.536 76H314.555V72.2617C314.555 71.1543 315.194 70.4746 316.202 70.4746C317.209 70.4746 317.678 71.0195 317.678 72.1562V76H318.698V71.9102C318.698 70.4102 317.907 69.5723 316.489 69.5723C315.557 69.5723 314.965 69.9648 314.649 70.6328H314.555V69.6836H313.536V76ZM323.001 76.1113C324.49 76.1113 325.392 75.2676 325.609 74.4121L325.621 74.3652H324.601L324.578 74.418C324.408 74.7988 323.88 75.2031 323.025 75.2031C321.9 75.2031 321.179 74.4414 321.15 73.1348H325.697V72.7363C325.697 70.8496 324.654 69.5723 322.937 69.5723C321.22 69.5723 320.107 70.9082 320.107 72.8594V72.8652C320.107 74.8457 321.197 76.1113 323.001 76.1113ZM322.931 70.4805C323.863 70.4805 324.554 71.0723 324.66 72.3203H321.167C321.279 71.1191 321.994 70.4805 322.931 70.4805ZM332.476 76H333.531V67.5449H332.482L330.232 69.1621V70.2754L332.383 68.7168H332.476V76ZM339.716 76H340.747V74.248H341.948V73.3047H340.747V67.5449H339.218C338.034 69.3086 336.739 71.3711 335.597 73.2871V74.248H339.716V76ZM336.675 73.3105V73.2402C337.595 71.6875 338.702 69.9414 339.651 68.5234H339.722V73.3105H336.675Z" fill="#1D1D1F"/>
<path d="M306.006 90H306.875V84.5361H306.953L310.777 90H311.631V82.9541H310.762V88.4375H310.684L306.861 82.9541H306.006V90ZM315.389 90.0928C316.629 90.0928 317.381 89.3896 317.562 88.6768L317.572 88.6377H316.722L316.703 88.6816C316.561 88.999 316.121 89.3359 315.409 89.3359C314.471 89.3359 313.871 88.7012 313.846 87.6123H317.635V87.2803C317.635 85.708 316.766 84.6436 315.335 84.6436C313.905 84.6436 312.977 85.7568 312.977 87.3828V87.3877C312.977 89.0381 313.885 90.0928 315.389 90.0928ZM315.33 85.4004C316.107 85.4004 316.683 85.8936 316.771 86.9336H313.861C313.954 85.9326 314.549 85.4004 315.33 85.4004ZM319.889 90H320.739L321.911 85.9277H321.989L323.166 90H324.02L325.495 84.7363H324.65L323.615 88.9453H323.537L322.36 84.7363H321.554L320.377 88.9453H320.299L319.264 84.7363H318.415L319.889 90Z" fill="#BF4800"/>
<g clip-path="url(#clip2_2_3299)">
<path d="M405.954 52.5004C405.82 52.3433 405.699 52.1761 405.59 52.0004H396.096C396.017 52.0004 395.721 52.0004 395.636 52.0004C395.192 52.0177 394.747 51.9799 394.312 51.8877C393.977 51.8073 393.671 51.6325 393.432 51.384C393.195 51.1291 393.033 50.8126 392.966 50.4704C392.889 50.0207 392.858 49.5642 392.875 49.1082V18.2917C392.875 18.1951 392.875 17.9791 392.875 17.8798C392.854 17.4002 392.892 16.9199 392.986 16.4491C393.069 16.0883 393.262 15.762 393.538 15.5152C393.681 15.3892 393.843 15.2871 394.018 15.2129C394.192 15.1407 394.374 15.09 394.56 15.062C394.796 15.0267 395.033 15.0077 395.271 15.005C395.429 15.0012 395.613 15.0006 395.789 15.0006H397.072C397.122 14.9984 397.171 15.0009 397.22 15.0082C397.269 15.0144 397.314 15.0363 397.349 15.0706C397.384 15.1049 397.407 15.1497 397.414 15.1982C397.425 15.2507 397.424 15.5618 397.426 15.6082C397.426 15.7194 397.434 15.8304 397.451 15.9402C397.47 16.0487 397.507 16.1532 397.561 16.249C397.648 16.4008 397.774 16.527 397.925 16.6149C398.043 16.6818 398.173 16.7243 398.307 16.7398C398.443 16.7533 398.58 16.7576 398.716 16.7528H404.141C404.392 16.7793 404.645 16.7381 404.875 16.6335V14.0004H396.097H395.811C395.62 14.0004 395.419 14.0011 395.247 14.0053C394.963 14.0094 394.68 14.0328 394.4 14.0753C394.134 14.1163 393.874 14.1896 393.626 14.2935C393.352 14.4096 393.098 14.5694 392.875 14.7666C392.45 15.1465 392.15 15.647 392.016 16.2015C391.899 16.7573 391.852 17.3255 391.875 17.893V18.2917V49.1082C391.857 49.6365 391.895 50.1653 391.99 50.6854C392.096 51.2057 392.344 51.6862 392.708 52.0732C393.076 52.4559 393.544 52.7269 394.059 52.8548C394.575 52.9693 395.103 53.0182 395.632 53.0004C395.724 53.0004 396.001 53.0009 396.097 53.0004H406.455C406.317 52.8878 406.186 52.7661 406.064 52.6363C406.024 52.5934 405.992 52.5447 405.954 52.5004ZM398.573 16.0367C398.499 16.0421 398.424 16.0267 398.358 15.9923C398.291 15.9578 398.236 15.9055 398.197 15.8413C398.164 15.7811 398.147 15.7136 398.147 15.6451C398.147 15.5765 398.164 15.5091 398.197 15.4488C398.236 15.3847 398.291 15.3326 398.358 15.2982C398.424 15.2637 398.499 15.2484 398.573 15.2539C398.671 15.263 398.761 15.3082 398.827 15.3806C398.893 15.453 398.93 15.5474 398.93 15.6453C398.93 15.7433 398.893 15.8377 398.827 15.9101C398.761 15.9825 398.671 16.0276 398.573 16.0367H398.573ZM399.811 14.3767H402.898C402.931 14.3768 402.963 14.3899 402.986 14.4132C403.01 14.4365 403.023 14.468 403.023 14.501V14.5019V14.5204C403.023 14.5537 403.01 14.5855 402.987 14.609C402.963 14.6325 402.931 14.6457 402.898 14.6457H399.811C399.778 14.6457 399.746 14.6325 399.723 14.609C399.699 14.5855 399.686 14.5536 399.686 14.5204V14.5015V14.5005C399.687 14.4675 399.7 14.436 399.723 14.4127C399.747 14.3895 399.778 14.3764 399.811 14.3764V14.3767ZM427.875 13.392C427.895 12.7959 427.853 12.1993 427.749 11.612C427.633 11.0275 427.358 10.486 426.955 10.0469C426.552 9.6167 426.034 9.31073 425.462 9.16503C424.892 9.03604 424.308 8.98096 423.723 9.00113C423.613 9.00066 423.502 9.00043 423.39 9.00043H410.541H410.226C410.015 9.00043 409.793 9.00123 409.602 9.00603C409.289 9.01042 408.976 9.03665 408.666 9.08453C408.371 9.13085 408.084 9.21352 407.811 9.33063C407.507 9.46239 407.226 9.64282 406.981 9.86483C406.509 10.2967 406.178 10.8609 406.032 11.4837C405.902 12.1111 405.85 12.7519 405.875 13.392V15.0006V48.6091C405.855 49.2051 405.897 49.8015 406.001 50.3885C406.118 50.9733 406.392 51.515 406.795 51.9542C406.811 51.971 406.829 51.9842 406.845 52.0003C407.029 52.1905 407.238 52.3556 407.465 52.4914C407.722 52.6437 408 52.7597 408.289 52.8361C408.382 52.8609 408.478 52.8634 408.572 52.8812C409.052 52.9653 409.539 53.0052 410.027 53.0004C410.196 53.001 410.37 53.001 410.541 53.0004H423.579C424.175 53.0229 424.771 52.9766 425.356 52.8623C425.944 52.7323 426.482 52.4353 426.905 52.0071C427.326 51.5686 427.616 51.0202 427.74 50.4247C427.852 49.8263 427.897 49.2174 427.875 48.6091V13.8419C427.875 13.6914 427.875 13.5397 427.875 13.392ZM415.216 9.51203C415.216 9.47755 415.23 9.44448 415.254 9.4201C415.279 9.39573 415.312 9.38203 415.346 9.38203H418.405C418.439 9.38203 418.472 9.39573 418.497 9.4201C418.521 9.44448 418.535 9.47755 418.535 9.51203V9.53203C418.535 9.56651 418.521 9.59957 418.497 9.62395C418.472 9.64833 418.439 9.66203 418.405 9.66203H415.346C415.311 9.66203 415.278 9.64833 415.254 9.62395C415.229 9.59957 415.216 9.56651 415.216 9.53203L415.216 9.51203ZM413.645 10.345C413.685 10.278 413.743 10.2234 413.813 10.1875C413.882 10.1515 413.96 10.1355 414.038 10.1412C414.141 10.1507 414.235 10.1979 414.304 10.2736C414.373 10.3493 414.412 10.4481 414.412 10.5506C414.412 10.653 414.373 10.7518 414.304 10.8275C414.235 10.9033 414.141 10.9505 414.038 10.9599C413.96 10.9656 413.882 10.9495 413.813 10.9134C413.743 10.8774 413.685 10.8227 413.645 10.7556C413.611 10.6926 413.593 10.6219 413.593 10.5501C413.593 10.4783 413.611 10.4077 413.645 10.3446L413.645 10.345ZM426.875 13.7669V27.4757V48.6285C426.895 49.1562 426.858 49.6844 426.765 50.2041C426.682 50.6192 426.482 51.002 426.19 51.3078C425.899 51.601 425.53 51.803 425.126 51.8891C424.616 51.9839 424.097 52.0212 423.579 52.0004H410.54C410.398 52.0004 410.174 52.0004 410.031 52.0004C409.787 51.9993 409.568 51.9931 409.354 51.9814C409.082 51.9721 408.811 51.9349 408.546 51.8703C408.532 51.8666 408.521 51.8582 408.507 51.8542C408.133 51.7542 407.794 51.553 407.527 51.2726C407.247 50.9654 407.057 50.5864 406.979 50.1778C406.891 49.6599 406.856 49.1342 406.875 48.6091V15.0004C406.875 14.4863 406.875 13.8904 406.875 13.3768C406.852 12.8238 406.894 12.2699 407.002 11.7268C407.1 11.2966 407.327 10.9062 407.651 10.6068C407.817 10.4575 408.005 10.3362 408.21 10.2476C408.408 10.1633 408.617 10.1041 408.83 10.0712C409.094 10.0307 409.36 10.0089 409.628 10.0059C409.81 10.0013 410.024 10.0006 410.227 10.0006H410.392H410.541H412.492C412.547 9.99814 412.602 10.001 412.657 10.0091C412.711 10.016 412.762 10.0404 412.801 10.0786C412.84 10.1169 412.865 10.1668 412.873 10.2209C412.883 10.2754 412.887 10.3305 412.886 10.3857C412.886 10.5096 412.896 10.6333 412.915 10.7557C412.936 10.8768 412.977 10.9934 413.038 11.1003C413.135 11.2697 413.275 11.4106 413.444 11.5086C413.575 11.5833 413.721 11.6307 413.871 11.648C414.022 11.663 414.175 11.6679 414.327 11.6626H419.424C419.576 11.6679 419.728 11.663 419.88 11.648C420.03 11.6306 420.175 11.5832 420.307 11.5086C420.476 11.4106 420.616 11.2698 420.712 11.1004C420.773 10.9935 420.815 10.8769 420.836 10.7558C420.855 10.6334 420.864 10.5097 420.864 10.3858C420.863 10.3306 420.868 10.2754 420.877 10.221C420.885 10.167 420.911 10.117 420.95 10.0788C420.989 10.0405 421.039 10.0161 421.094 10.0092C421.148 10.001 421.203 9.99805 421.258 10.0004H423.39H423.719C424.217 9.98086 424.716 10.0245 425.204 10.1304C425.594 10.2285 425.948 10.4359 426.224 10.7282C426.504 11.0355 426.694 11.4144 426.771 11.8229C426.86 12.3413 426.895 12.8674 426.875 13.3929C426.875 13.4604 426.875 13.7044 426.875 13.7669Z" fill="#1D1D1F"/>
</g>
<path d="M384.412 68.4648C384.799 68.4648 385.115 68.1484 385.115 67.7617C385.115 67.375 384.799 67.0586 384.412 67.0586C384.025 67.0586 383.709 67.375 383.709 67.7617C383.709 68.1484 384.025 68.4648 384.412 68.4648ZM383.896 76H384.916V69.6836H383.896V76ZM386.847 76H387.901V72.9824H390.034C391.622 72.9824 392.747 71.8633 392.747 70.2578V70.2461C392.747 68.6406 391.622 67.5449 390.034 67.5449H386.847V76ZM389.765 68.4824C390.972 68.4824 391.669 69.1445 391.669 70.2578V70.2695C391.669 71.3828 390.972 72.0449 389.765 72.0449H387.901V68.4824H389.765ZM394.285 76H395.305V72.2617C395.305 71.1543 395.944 70.4746 396.951 70.4746C397.959 70.4746 398.428 71.0195 398.428 72.1562V76H399.447V71.9102C399.447 70.4102 398.656 69.5723 397.238 69.5723C396.307 69.5723 395.715 69.9648 395.399 70.6328H395.305V67.1758H394.285V76ZM403.769 76.1113C405.568 76.1113 406.681 74.8691 406.681 72.8477V72.8359C406.681 70.8086 405.568 69.5723 403.769 69.5723C401.97 69.5723 400.857 70.8086 400.857 72.8359V72.8477C400.857 74.8691 401.97 76.1113 403.769 76.1113ZM403.769 75.209C402.574 75.209 401.9 74.3359 401.9 72.8477V72.8359C401.9 71.3418 402.574 70.4746 403.769 70.4746C404.964 70.4746 405.638 71.3418 405.638 72.8359V72.8477C405.638 74.3359 404.964 75.209 403.769 75.209ZM408.143 76H409.163V72.2617C409.163 71.1543 409.801 70.4746 410.809 70.4746C411.817 70.4746 412.286 71.0195 412.286 72.1562V76H413.305V71.9102C413.305 70.4102 412.514 69.5723 411.096 69.5723C410.164 69.5723 409.573 69.9648 409.256 70.6328H409.163V69.6836H408.143V76ZM417.609 76.1113C419.097 76.1113 420 75.2676 420.216 74.4121L420.228 74.3652H419.209L419.185 74.418C419.015 74.7988 418.488 75.2031 417.632 75.2031C416.507 75.2031 415.787 74.4414 415.757 73.1348H420.304V72.7363C420.304 70.8496 419.261 69.5723 417.544 69.5723C415.828 69.5723 414.714 70.9082 414.714 72.8594V72.8652C414.714 74.8457 415.804 76.1113 417.609 76.1113ZM417.539 70.4805C418.47 70.4805 419.162 71.0723 419.267 72.3203H415.775C415.886 71.1191 416.601 70.4805 417.539 70.4805ZM427.084 76H428.138V67.5449H427.09L424.84 69.1621V70.2754L426.99 68.7168H427.084V76ZM433.339 76.1406C435.032 76.1406 436.274 75.0977 436.274 73.6855V73.6738C436.274 72.4727 435.436 71.7051 434.206 71.5996V71.5762C435.261 71.3535 435.999 70.6387 435.999 69.5957V69.584C435.999 68.3008 434.938 67.4043 433.327 67.4043C431.745 67.4043 430.655 68.3242 430.52 69.7012L430.515 69.7598H431.528L431.534 69.7012C431.622 68.8457 432.331 68.3184 433.327 68.3184C434.358 68.3184 434.938 68.8281 434.938 69.7129V69.7246C434.938 70.5684 434.235 71.1895 433.227 71.1895H432.214V72.0801H433.274C434.458 72.0801 435.202 72.6602 435.202 73.6973V73.709C435.202 74.6055 434.446 75.2266 433.339 75.2266C432.214 75.2266 431.446 74.6523 431.364 73.8203L431.358 73.7617H430.345L430.35 73.832C430.462 75.168 431.593 76.1406 433.339 76.1406Z" fill="#1D1D1F"/>
<g clip-path="url(#clip3_2_3299)">
<path d="M511.641 13H498.641C497.846 13.0024 497.084 13.3192 496.522 13.8813C495.96 14.4434 495.643 15.2051 495.641 16V50C495.643 50.7949 495.96 51.5566 496.522 52.1187C497.084 52.6808 497.846 52.9976 498.641 53H511.641C512.436 52.9976 513.197 52.6808 513.759 52.1187C514.321 51.5566 514.638 50.7949 514.641 50V16C514.638 15.2051 514.321 14.4434 513.759 13.8813C513.197 13.3192 512.436 13.0024 511.641 13ZM502.891 15.25H507.391C507.457 15.25 507.521 15.2763 507.567 15.3232C507.614 15.3701 507.641 15.4337 507.641 15.5C507.641 15.5663 507.614 15.6299 507.567 15.6768C507.521 15.7237 507.457 15.75 507.391 15.75H502.891C502.824 15.75 502.761 15.7237 502.714 15.6768C502.667 15.6299 502.641 15.5663 502.641 15.5C502.641 15.4337 502.667 15.3701 502.714 15.3232C502.761 15.2763 502.824 15.25 502.891 15.25ZM501.141 15.125C501.215 15.125 501.287 15.147 501.349 15.1882C501.411 15.2294 501.459 15.288 501.487 15.3565C501.515 15.425 501.523 15.5004 501.508 15.5732C501.494 15.6459 501.458 15.7127 501.406 15.7652C501.353 15.8176 501.287 15.8533 501.214 15.8678C501.141 15.8823 501.066 15.8748 500.997 15.8465C500.929 15.8181 500.87 15.77 500.829 15.7083C500.788 15.6467 500.766 15.5742 500.766 15.5C500.766 15.4005 500.805 15.3052 500.875 15.2348C500.946 15.1645 501.041 15.125 501.141 15.125ZM505.141 52.25C504.795 52.25 504.456 52.1474 504.168 51.9551C503.881 51.7628 503.656 51.4895 503.524 51.1697C503.391 50.8499 503.357 50.4981 503.424 50.1586C503.492 49.8191 503.658 49.5073 503.903 49.2626C504.148 49.0178 504.46 48.8512 504.799 48.7836C505.139 48.7161 505.491 48.7508 505.81 48.8832C506.13 49.0157 506.403 49.24 506.596 49.5278C506.788 49.8155 506.891 50.1539 506.891 50.5C506.891 50.9641 506.706 51.4092 506.378 51.7374C506.05 52.0656 505.605 52.25 505.141 52.25ZM513.641 48H496.641V18H513.641V48Z" fill="#1D1D1F"/>
<path d="M505.141 51.625C505.762 51.625 506.266 51.1213 506.266 50.5C506.266 49.8787 505.762 49.375 505.141 49.375C504.519 49.375 504.016 49.8787 504.016 50.5C504.016 51.1213 504.519 51.625 505.141 51.625Z" fill="#1D1D1F"/>
</g>
<path d="M478.814 68.4648C479.201 68.4648 479.517 68.1484 479.517 67.7617C479.517 67.375 479.201 67.0586 478.814 67.0586C478.428 67.0586 478.111 67.375 478.111 67.7617C478.111 68.1484 478.428 68.4648 478.814 68.4648ZM478.299 76H479.318V69.6836H478.299V76ZM481.249 76H482.304V72.9824H484.437C486.024 72.9824 487.149 71.8633 487.149 70.2578V70.2461C487.149 68.6406 486.024 67.5449 484.437 67.5449H481.249V76ZM484.167 68.4824C485.374 68.4824 486.071 69.1445 486.071 70.2578V70.2695C486.071 71.3828 485.374 72.0449 484.167 72.0449H482.304V68.4824H484.167ZM488.688 76H489.707V72.2617C489.707 71.1543 490.346 70.4746 491.354 70.4746C492.361 70.4746 492.83 71.0195 492.83 72.1562V76H493.85V71.9102C493.85 70.4102 493.059 69.5723 491.641 69.5723C490.709 69.5723 490.117 69.9648 489.801 70.6328H489.707V67.1758H488.688V76ZM498.171 76.1113C499.97 76.1113 501.083 74.8691 501.083 72.8477V72.8359C501.083 70.8086 499.97 69.5723 498.171 69.5723C496.372 69.5723 495.259 70.8086 495.259 72.8359V72.8477C495.259 74.8691 496.372 76.1113 498.171 76.1113ZM498.171 75.209C496.976 75.209 496.302 74.3359 496.302 72.8477V72.8359C496.302 71.3418 496.976 70.4746 498.171 70.4746C499.366 70.4746 500.04 71.3418 500.04 72.8359V72.8477C500.04 74.3359 499.366 75.209 498.171 75.209ZM502.545 76H503.565V72.2617C503.565 71.1543 504.204 70.4746 505.211 70.4746C506.219 70.4746 506.688 71.0195 506.688 72.1562V76H507.707V71.9102C507.707 70.4102 506.916 69.5723 505.498 69.5723C504.567 69.5723 503.975 69.9648 503.659 70.6328H503.565V69.6836H502.545V76ZM512.011 76.1113C513.5 76.1113 514.402 75.2676 514.619 74.4121L514.63 74.3652H513.611L513.587 74.418C513.417 74.7988 512.89 75.2031 512.035 75.2031C510.91 75.2031 510.189 74.4414 510.16 73.1348H514.707V72.7363C514.707 70.8496 513.664 69.5723 511.947 69.5723C510.23 69.5723 509.117 70.9082 509.117 72.8594V72.8652C509.117 74.8457 510.207 76.1113 512.011 76.1113ZM511.941 70.4805C512.873 70.4805 513.564 71.0723 513.669 72.3203H510.177C510.289 71.1191 511.003 70.4805 511.941 70.4805ZM522.324 76.1992C524.211 76.1992 525.447 75.2148 525.447 73.6328V73.627C525.447 72.4082 524.75 71.6992 522.986 71.3066L522.049 71.0957C520.9 70.8438 520.437 70.3867 520.437 69.7129V69.707C520.437 68.8223 521.252 68.3242 522.306 68.3184C523.408 68.3125 524.111 68.8633 524.228 69.6074L524.24 69.6836H525.295L525.289 69.6016C525.201 68.3418 524.023 67.3457 522.336 67.3457C520.59 67.3457 519.365 68.3359 519.359 69.7363V69.7422C519.359 70.9668 520.092 71.7461 521.785 72.1211L522.722 72.3262C523.883 72.584 524.369 73.0645 524.369 73.7676V73.7734C524.369 74.6348 523.531 75.2266 522.383 75.2266C521.164 75.2266 520.285 74.6934 520.209 73.8496L520.203 73.7852H519.148L519.154 73.8496C519.277 75.2266 520.472 76.1992 522.324 76.1992ZM527.085 76H532.323V75.0508H528.14V72.1445H532.106V71.207H528.14V68.4941H532.323V67.5449H527.085V76Z" fill="#1D1D1F"/>
<g clip-path="url(#clip4_2_3299)">
<path d="M608.25 9H592.25C591.454 9 590.691 9.31607 590.129 9.87868C589.566 10.4413 589.25 11.2044 589.25 12V50C589.25 50.7957 589.566 51.5587 590.129 52.1213C590.691 52.6839 591.454 53 592.25 53H608.25C609.046 53 609.809 52.6839 610.371 52.1213C610.934 51.5587 611.25 50.7957 611.25 50V12C611.25 11.2044 610.934 10.4413 610.371 9.87868C609.809 9.31607 609.046 9 608.25 9ZM610.25 50C610.249 50.5302 610.038 51.0386 609.664 51.4135C609.289 51.7885 608.78 51.9994 608.25 52H592.25C591.72 51.9994 591.211 51.7885 590.836 51.4135C590.462 51.0386 590.251 50.5302 590.25 50V12C590.251 11.4698 590.462 10.9614 590.836 10.5865C591.211 10.2115 591.72 10.0006 592.25 10H594.875C595 9.99565 595.122 10.0411 595.213 10.1263C595.305 10.2115 595.359 10.3295 595.364 10.4545V11.0709C595.372 11.323 595.479 11.5617 595.662 11.7355C595.845 11.9094 596.089 12.0043 596.341 12H604.159C604.411 12.0043 604.655 11.9094 604.838 11.7355C605.021 11.5617 605.128 11.323 605.136 11.0709V10.4545C605.141 10.3295 605.195 10.2115 605.287 10.1263C605.378 10.0411 605.5 9.99565 605.625 10H608.25C608.78 10.0006 609.289 10.2115 609.664 10.5865C610.038 10.9614 610.249 11.4698 610.25 12V50ZM603.003 10.5057C603.002 10.57 602.982 10.6327 602.946 10.6859C602.91 10.739 602.859 10.7802 602.799 10.8043C602.739 10.8285 602.674 10.8344 602.611 10.8214C602.548 10.8083 602.49 10.777 602.445 10.7312C602.4 10.6855 602.369 10.6273 602.357 10.5642C602.344 10.501 602.351 10.4356 602.376 10.3762C602.401 10.3168 602.442 10.2661 602.496 10.2304C602.55 10.1947 602.612 10.1757 602.677 10.1757C602.72 10.1759 602.763 10.1847 602.802 10.2014C602.842 10.2181 602.878 10.2425 602.908 10.2731C602.939 10.3038 602.962 10.3401 602.979 10.38C602.995 10.4199 603.003 10.4626 603.003 10.5057ZM601.856 10.5057C601.856 10.5383 601.85 10.5707 601.838 10.6009C601.826 10.6312 601.807 10.6587 601.785 10.6819C601.762 10.7051 601.734 10.7236 601.704 10.7362C601.674 10.7489 601.642 10.7555 601.609 10.7557H599.632C599.566 10.7557 599.502 10.7294 599.455 10.6825C599.409 10.6356 599.382 10.572 599.382 10.5057C599.382 10.4394 599.409 10.3758 599.455 10.3289C599.502 10.282 599.566 10.2557 599.632 10.2557H601.609C601.675 10.2561 601.738 10.2827 601.785 10.3295C601.831 10.3764 601.857 10.4398 601.856 10.5057Z" fill="#1D1D1F"/>
</g>
<path d="M574.928 68.4648C575.314 68.4648 575.631 68.1484 575.631 67.7617C575.631 67.375 575.314 67.0586 574.928 67.0586C574.541 67.0586 574.225 67.375 574.225 67.7617C574.225 68.1484 574.541 68.4648 574.928 68.4648ZM574.412 76H575.432V69.6836H574.412V76ZM577.362 76H578.417V72.9824H580.55C582.138 72.9824 583.263 71.8633 583.263 70.2578V70.2461C583.263 68.6406 582.138 67.5449 580.55 67.5449H577.362V76ZM580.28 68.4824C581.487 68.4824 582.185 69.1445 582.185 70.2578V70.2695C582.185 71.3828 581.487 72.0449 580.28 72.0449H578.417V68.4824H580.28ZM584.801 76H585.82V72.2617C585.82 71.1543 586.459 70.4746 587.467 70.4746C588.475 70.4746 588.944 71.0195 588.944 72.1562V76H589.963V71.9102C589.963 70.4102 589.172 69.5723 587.754 69.5723C586.822 69.5723 586.231 69.9648 585.914 70.6328H585.82V67.1758H584.801V76ZM594.284 76.1113C596.083 76.1113 597.197 74.8691 597.197 72.8477V72.8359C597.197 70.8086 596.083 69.5723 594.284 69.5723C592.486 69.5723 591.372 70.8086 591.372 72.8359V72.8477C591.372 74.8691 592.486 76.1113 594.284 76.1113ZM594.284 75.209C593.089 75.209 592.415 74.3359 592.415 72.8477V72.8359C592.415 71.3418 593.089 70.4746 594.284 70.4746C595.48 70.4746 596.154 71.3418 596.154 72.8359V72.8477C596.154 74.3359 595.48 75.209 594.284 75.209ZM598.659 76H599.678V72.2617C599.678 71.1543 600.317 70.4746 601.325 70.4746C602.332 70.4746 602.801 71.0195 602.801 72.1562V76H603.821V71.9102C603.821 70.4102 603.03 69.5723 601.612 69.5723C600.68 69.5723 600.088 69.9648 599.772 70.6328H599.678V69.6836H598.659V76ZM608.125 76.1113C609.613 76.1113 610.515 75.2676 610.732 74.4121L610.744 74.3652H609.724L609.701 74.418C609.531 74.7988 609.003 75.2031 608.148 75.2031C607.023 75.2031 606.302 74.4414 606.273 73.1348H610.82V72.7363C610.82 70.8496 609.777 69.5723 608.06 69.5723C606.343 69.5723 605.23 70.9082 605.23 72.8594V72.8652C605.23 74.8457 606.32 76.1113 608.125 76.1113ZM608.054 70.4805C608.986 70.4805 609.677 71.0723 609.783 72.3203H606.291C606.402 71.1191 607.117 70.4805 608.054 70.4805ZM617.599 76H618.654V67.5449H617.605L615.355 69.1621V70.2754L617.506 68.7168H617.599V76ZM620.977 76H626.45V75.0508H622.442V74.957L624.364 72.9707C625.893 71.3945 626.309 70.6914 626.309 69.7246V69.7129C626.309 68.3477 625.179 67.3457 623.702 67.3457C622.085 67.3457 620.925 68.4238 620.919 69.9238L620.931 69.9297L621.938 69.9355L621.944 69.9238C621.944 68.9277 622.618 68.2656 623.632 68.2656C624.628 68.2656 625.231 68.9336 625.231 69.8242V69.8359C625.231 70.5742 624.915 71.0137 623.837 72.1797L620.977 75.2734V76Z" fill="#1D1D1F"/>
<g clip-path="url(#clip5_2_3299)">
<path d="M684.766 16H675.766C674.307 16.0017 672.91 16.5818 671.878 17.6128C670.847 18.6439 670.267 20.0418 670.266 21.5V47.5C670.267 48.9581 670.847 50.356 671.879 51.3871C672.91 52.4181 674.307 52.9982 675.766 53H684.766C686.224 52.9982 687.622 52.4181 688.653 51.3871C689.684 50.356 690.264 48.9581 690.266 47.5V21.5C690.264 20.0418 689.684 18.6439 688.653 17.6128C687.622 16.5818 686.224 16.0017 684.766 16ZM688.266 47.5C688.265 48.4279 687.895 49.3175 687.239 49.9736C686.583 50.6298 685.694 50.9989 684.766 51H675.766C674.838 50.9989 673.948 50.6298 673.292 49.9736C672.636 49.3175 672.267 48.4279 672.266 47.5V21.5C672.267 20.5721 672.636 19.6825 673.292 19.0264C673.948 18.3702 674.838 18.0011 675.766 18H684.766C685.694 18.0011 686.583 18.3702 687.239 19.0264C687.895 19.6825 688.265 20.5721 688.266 21.5V47.5ZM714.266 39.5H715.266V45.5H714.266V39.5ZM702.266 16H708.266V17H702.266V16ZM714.266 31.5H715.266V37.5H714.266V31.5ZM702.266 52H708.266V53H702.266V52ZM696.266 37.5H695.266V31.5H696.266V37.5ZM696.266 29.5H695.266V23.5H696.266V29.5ZM696.266 45.5H695.266V39.5H696.266V45.5ZM710.266 17.05V16.0253C711.631 16.1512 712.901 16.7822 713.825 17.7948C714.75 18.8074 715.264 20.1287 715.266 21.5H714.266C714.264 20.396 713.854 19.3315 713.116 18.5104C712.378 17.6893 711.363 17.1693 710.266 17.05ZM714.266 47.5H715.266C715.264 48.8713 714.75 50.1926 713.825 51.2052C712.901 52.2178 711.631 52.8488 710.266 52.9747V51.95C711.363 51.8307 712.378 51.3107 713.116 50.4896C713.854 49.6685 714.264 48.604 714.266 47.5ZM700.266 16.0253V17.05C699.168 17.1693 698.153 17.6893 697.415 18.5104C696.677 19.3315 696.268 20.396 696.266 21.5H695.266C695.268 20.1287 695.781 18.8074 696.706 17.7948C697.631 16.7822 698.9 16.1512 700.266 16.0253ZM700.266 51.95V52.9751C698.9 52.8492 697.631 52.2181 696.706 51.2054C695.781 50.1928 695.267 48.8714 695.266 47.5H696.266C696.268 48.604 696.677 49.6685 697.415 50.4896C698.153 51.3107 699.168 51.8307 700.266 51.95ZM714.266 23.5H715.266V29.5H714.266V23.5Z" fill="#1D1D1F"/>
</g>
<path d="M672.058 76.1992C673.856 76.1992 675.192 75.1973 675.474 73.6504V73.6387H674.407L674.396 73.6504C674.132 74.623 673.235 75.2266 672.058 75.2266C670.429 75.2266 669.409 73.8965 669.409 71.7812V71.7695C669.409 69.6543 670.429 68.3184 672.052 68.3184C673.218 68.3184 674.12 69.0039 674.401 70.0879L674.407 70.0996H675.468L675.474 70.0879C675.222 68.4648 673.833 67.3457 672.052 67.3457C669.755 67.3457 668.325 69.0449 668.325 71.7695V71.7812C668.325 74.5 669.761 76.1992 672.058 76.1992ZM679.59 76.1113C681.389 76.1113 682.502 74.8691 682.502 72.8477V72.8359C682.502 70.8086 681.389 69.5723 679.59 69.5723C677.791 69.5723 676.678 70.8086 676.678 72.8359V72.8477C676.678 74.8691 677.791 76.1113 679.59 76.1113ZM679.59 75.209C678.395 75.209 677.721 74.3359 677.721 72.8477V72.8359C677.721 71.3418 678.395 70.4746 679.59 70.4746C680.785 70.4746 681.459 71.3418 681.459 72.8359V72.8477C681.459 74.3359 680.785 75.209 679.59 75.209ZM683.964 76H684.984V72.0859C684.984 71.1953 685.611 70.4746 686.437 70.4746C687.234 70.4746 687.749 70.9609 687.749 71.7109V76H688.769V71.9395C688.769 71.1367 689.349 70.4746 690.228 70.4746C691.118 70.4746 691.546 70.9375 691.546 71.8691V76H692.566V71.6348C692.566 70.3105 691.845 69.5723 690.556 69.5723C689.683 69.5723 688.962 70.0117 688.622 70.6797H688.529C688.236 70.0234 687.638 69.5723 686.783 69.5723C685.956 69.5723 685.359 69.9648 685.077 70.6445H684.984V69.6836H683.964V76ZM694.286 78.1094H695.305V75.0039H695.399C695.745 75.6777 696.5 76.1113 697.368 76.1113C698.973 76.1113 700.016 74.8281 700.016 72.8477V72.8359C700.016 70.8672 698.967 69.5723 697.368 69.5723C696.489 69.5723 695.786 69.9883 695.399 70.6914H695.305V69.6836H694.286V78.1094ZM697.133 75.209C695.985 75.209 695.282 74.3066 695.282 72.8477V72.8359C695.282 71.377 695.985 70.4746 697.133 70.4746C698.288 70.4746 698.973 71.3652 698.973 72.8359V72.8477C698.973 74.3184 698.288 75.209 697.133 75.209ZM703.224 76.1113C704.074 76.1113 704.736 75.7422 705.134 75.0684H705.228V76H706.248V71.6758C706.248 70.3633 705.386 69.5723 703.845 69.5723C702.498 69.5723 701.537 70.2402 701.373 71.2305L701.367 71.2656H702.386L702.392 71.248C702.556 70.7559 703.054 70.4746 703.81 70.4746C704.753 70.4746 705.228 70.8965 705.228 71.6758V72.25L703.418 72.3613C701.947 72.4492 701.115 73.0996 701.115 74.2246V74.2363C701.115 75.3848 702.023 76.1113 703.224 76.1113ZM702.158 74.2129V74.2012C702.158 73.5742 702.58 73.2344 703.541 73.1758L705.228 73.0703V73.6445C705.228 74.5469 704.472 75.2266 703.435 75.2266C702.703 75.2266 702.158 74.8516 702.158 74.2129ZM707.991 76H709.01V72.0859C709.01 71.1602 709.702 70.5449 710.674 70.5449C710.897 70.5449 711.09 70.5684 711.301 70.6035V69.6133C711.202 69.5957 710.985 69.5723 710.792 69.5723C709.936 69.5723 709.344 69.959 709.104 70.6211H709.01V69.6836H707.991V76ZM714.844 76.1113C716.332 76.1113 717.234 75.2676 717.451 74.4121L717.463 74.3652H716.443L716.42 74.418C716.25 74.7988 715.722 75.2031 714.867 75.2031C713.742 75.2031 713.021 74.4414 712.992 73.1348H717.539V72.7363C717.539 70.8496 716.496 69.5723 714.779 69.5723C713.062 69.5723 711.949 70.9082 711.949 72.8594V72.8652C711.949 74.8457 713.039 76.1113 714.844 76.1113ZM714.773 70.4805C715.705 70.4805 716.396 71.0723 716.502 72.3203H713.01C713.121 71.1191 713.836 70.4805 714.773 70.4805Z" fill="#1D1D1F"/>
<g clip-path="url(#clip6_2_3299)">
<path d="M787.455 42.8356C788.306 43.0616 789.184 43.1703 790.064 43.1589V51.5867C790.037 51.9427 789.888 52.2782 789.641 52.536C789.394 52.7937 789.065 52.9577 788.711 52.9998H787.162C786.764 52.9563 786.397 52.7654 786.132 52.4646C785.868 52.1637 785.725 51.7748 785.733 51.3743V42.1843C786.293 42.4383 786.868 42.6558 787.455 42.8356ZM785.733 41.0885C784.479 40.4492 783.356 39.5804 782.422 38.5271C781.483 37.5042 780.917 36.1941 780.816 34.8092C780.773 33.6334 781.051 32.468 781.618 31.4372C782.102 30.6459 782.769 29.9816 783.561 29.4995C784.354 29.0173 785.25 28.7313 786.176 28.6651C786.222 28.6651 786.268 28.6659 786.314 28.6674C787.706 28.7134 791.07 29.0262 794.09 33.0264C793.927 33.0326 793.764 33.0471 793.602 33.0699C792.792 33.2063 792.019 33.5123 791.335 33.9679C790.652 34.4236 790.072 35.0186 789.634 35.714C788.795 37.0085 788.365 38.5249 788.398 40.0668C788.406 40.2947 788.435 40.5213 788.484 40.7439C788.597 41.2344 788.8 41.6996 789.084 42.1152C788.631 42.0819 788.183 42.0028 787.746 41.879C787.054 41.6717 786.381 41.4073 785.733 41.0885ZM786.799 34.7555C786.992 34.8881 787.225 34.9501 787.458 34.931C787.692 34.9119 787.911 34.8129 788.08 34.6506L788.138 34.5782C788.245 34.4653 788.323 34.3288 788.366 34.1799C788.41 34.0311 788.417 33.874 788.388 33.7217C788.36 33.5693 788.295 33.4259 788.2 33.3032C788.106 33.1804 787.983 33.0818 787.843 33.0154L786.333 32.0436C786.123 31.8969 785.869 31.8251 785.613 31.84C785.357 31.8548 785.113 31.9553 784.921 32.1253L784.836 32.2077C784.748 32.3154 784.684 32.4407 784.649 32.5752C784.613 32.7096 784.607 32.8501 784.631 32.9871C784.655 33.1241 784.708 33.2544 784.786 33.3692C784.865 33.484 784.967 33.5805 785.086 33.6523L786.799 34.7555ZM798.533 38.951C798.495 39.1529 798.442 39.352 798.376 39.5467C798.216 40.0089 798.002 40.451 797.74 40.8641C797.425 41.4193 797.024 41.9208 796.552 42.3498C796.163 42.7364 795.7 43.0397 795.19 43.2411C794.68 43.4425 794.134 43.5379 793.586 43.5213C792.956 43.5227 792.332 43.4162 791.738 43.2064C791.664 43.1717 791.606 43.1374 791.536 43.1028C791.254 42.9655 790.981 42.8108 790.719 42.6396C790.5 42.4975 790.295 42.3365 790.105 42.1584C790.09 42.1447 790.078 42.1309 790.064 42.1171C789.633 41.6949 789.337 41.1545 789.213 40.5641C789.182 40.4288 789.162 40.2914 789.152 40.153C788.995 38.3309 790.09 34.4296 793.729 33.8089C793.957 33.7688 794.188 33.748 794.42 33.7468C794.487 33.7468 794.559 33.7579 794.628 33.7621C794.893 33.7741 795.156 33.822 795.408 33.9045C795.455 33.921 795.497 33.9479 795.543 33.9657C795.791 34.0582 796.031 34.1705 796.26 34.3015C797 34.7278 797.611 35.3456 798.028 36.0898C798.293 36.5785 798.472 37.1082 798.561 37.6566C798.621 38.0868 798.611 38.5238 798.533 38.951ZM797.23 38.171C797.081 37.6823 796.518 37.693 796.167 38.171L794.425 40.5724C794.158 41.0717 794.36 41.6774 794.828 41.6348H794.829C795.563 41.416 796.2 40.9537 796.637 40.3242C797.073 39.6947 797.282 38.9354 797.23 38.1712V38.171ZM769.78 43.1587V51.5865C769.806 51.9425 769.956 52.2781 770.203 52.5359C770.45 52.7937 770.779 52.9577 771.133 52.9998H772.681C773.08 52.9564 773.447 52.7654 773.711 52.4646C773.976 52.1637 774.118 51.7748 774.11 51.3743V42.1843C773.551 42.4381 772.976 42.6555 772.389 42.8352C771.538 43.0613 770.66 43.1702 769.78 43.1589L769.78 43.1587ZM778.225 31.437C778.793 32.4678 779.07 33.6332 779.028 34.809C778.927 36.1939 778.361 37.5041 777.422 38.5271C776.488 39.5805 775.365 40.4493 774.111 41.0885C773.463 41.4072 772.789 41.6714 772.098 41.8785C771.66 42.0024 771.211 42.0816 770.758 42.1148C771.043 41.6997 771.247 41.2344 771.359 40.7434C771.409 40.5208 771.437 40.2942 771.445 40.0663C771.479 38.5246 771.048 37.0083 770.21 35.714C769.772 35.0187 769.192 34.4237 768.508 33.968C767.825 33.5123 767.052 33.2062 766.242 33.0698C766.08 33.0471 765.917 33.0325 765.754 33.0263C768.775 29.0263 772.138 28.7133 773.53 28.6673C773.576 28.6658 773.622 28.665 773.669 28.665C774.594 28.7313 775.49 29.0174 776.283 29.4996C777.075 29.9817 777.741 30.646 778.226 31.4372L778.225 31.437ZM775.008 32.207L774.923 32.1246C774.731 31.9546 774.487 31.8541 774.231 31.8393C773.975 31.8244 773.721 31.8962 773.511 32.0429L772.001 33.0147C771.861 33.0812 771.738 33.1797 771.644 33.3025C771.549 33.4252 771.485 33.5686 771.456 33.721C771.427 33.8733 771.435 34.0303 771.478 34.1792C771.521 34.3281 771.599 34.4646 771.706 34.5775L771.764 34.6499C771.933 34.8122 772.152 34.9112 772.386 34.9303C772.619 34.9494 772.852 34.8874 773.045 34.7548L774.759 33.6516C774.878 33.5798 774.98 33.4832 775.058 33.3684C775.137 33.2537 775.189 33.1235 775.213 32.9866C775.237 32.8497 775.231 32.7093 775.195 32.5749C775.16 32.4405 775.096 32.3153 775.008 32.2077L775.008 32.207ZM769.78 42.117C769.766 42.1308 769.753 42.1445 769.739 42.1582C769.549 42.3363 769.344 42.4973 769.125 42.6394C768.863 42.8106 768.589 42.9653 768.308 43.1026C768.238 43.1372 768.18 43.1715 768.106 43.2062C767.512 43.416 766.887 43.5225 766.258 43.5211C765.71 43.5377 765.164 43.4423 764.654 43.241C764.144 43.0396 763.681 42.7364 763.292 42.3498C762.819 41.9207 762.418 41.4191 762.104 40.8638C761.842 40.4507 761.628 40.0086 761.467 39.5464C761.402 39.3517 761.349 39.1526 761.31 38.9507C761.232 38.5234 761.223 38.0864 761.283 37.6562C761.371 37.1079 761.551 36.5783 761.816 36.0898C762.233 35.3456 762.844 34.7279 763.584 34.3018C763.813 34.1709 764.053 34.0587 764.3 33.9663C764.347 33.9484 764.389 33.9214 764.436 33.9048C764.689 33.8223 764.951 33.7744 765.216 33.7624C765.285 33.7582 765.357 33.7471 765.424 33.7471C765.656 33.7483 765.887 33.7691 766.116 33.8092C769.755 34.4299 770.849 38.3312 770.692 40.1533C770.682 40.2917 770.662 40.4291 770.632 40.5644C770.507 41.1549 770.211 41.6953 769.78 42.1175L769.78 42.117ZM765.419 40.5724L763.677 38.1712C763.326 37.6932 762.763 37.6825 762.614 38.1712C762.564 38.5458 762.588 38.9266 762.687 39.2915C762.786 39.6563 762.956 39.9979 763.188 40.2961C763.384 40.6325 763.648 40.9249 763.963 41.1552C764.277 41.3855 764.635 41.5488 765.015 41.6348H765.016C765.484 41.6774 765.686 41.0717 765.419 40.5724Z" fill="#1D1D1F"/>
</g>
<path d="M758.886 76H759.993L760.843 73.5801H764.206L765.056 76H766.163L763.046 67.5449H762.003L758.886 76ZM762.478 68.9102H762.571L763.896 72.6836H761.153L762.478 68.9102ZM767.936 68.4648C768.322 68.4648 768.639 68.1484 768.639 67.7617C768.639 67.375 768.322 67.0586 767.936 67.0586C767.549 67.0586 767.233 67.375 767.233 67.7617C767.233 68.1484 767.549 68.4648 767.936 68.4648ZM767.42 76H768.44V69.6836H767.42V76ZM770.241 76H771.261V72.0859C771.261 71.1602 771.952 70.5449 772.925 70.5449C773.148 70.5449 773.341 70.5684 773.552 70.6035V69.6133C773.452 69.5957 773.236 69.5723 773.042 69.5723C772.187 69.5723 771.595 69.959 771.355 70.6211H771.261V69.6836H770.241V76ZM774.821 76H775.875V72.9824H778.008C779.596 72.9824 780.721 71.8633 780.721 70.2578V70.2461C780.721 68.6406 779.596 67.5449 778.008 67.5449H774.821V76ZM777.739 68.4824C778.946 68.4824 779.643 69.1445 779.643 70.2578V70.2695C779.643 71.3828 778.946 72.0449 777.739 72.0449H775.875V68.4824H777.739ZM784.621 76.1113C786.419 76.1113 787.533 74.8691 787.533 72.8477V72.8359C787.533 70.8086 786.419 69.5723 784.621 69.5723C782.822 69.5723 781.709 70.8086 781.709 72.8359V72.8477C781.709 74.8691 782.822 76.1113 784.621 76.1113ZM784.621 75.209C783.425 75.209 782.751 74.3359 782.751 72.8477V72.8359C782.751 71.3418 783.425 70.4746 784.621 70.4746C785.816 70.4746 786.49 71.3418 786.49 72.8359V72.8477C786.49 74.3359 785.816 75.209 784.621 75.209ZM791.327 76.1113C792.206 76.1113 792.909 75.6953 793.296 74.9922H793.389V76H794.409V67.1758H793.389V70.6797H793.296C792.95 70.0059 792.194 69.5723 791.327 69.5723C789.721 69.5723 788.678 70.8555 788.678 72.8359V72.8477C788.678 74.8164 789.727 76.1113 791.327 76.1113ZM791.561 75.209C790.407 75.209 789.721 74.3184 789.721 72.8477V72.8359C789.721 71.3652 790.407 70.4746 791.561 70.4746C792.71 70.4746 793.413 71.377 793.413 72.8359V72.8477C793.413 74.3066 792.71 75.209 791.561 75.209ZM798.414 76.1113C799.849 76.1113 800.945 75.332 800.945 74.207V74.1953C800.945 73.293 800.371 72.7773 799.181 72.4902L798.209 72.2559C797.465 72.0742 797.148 71.8047 797.148 71.377V71.3652C797.148 70.8086 797.699 70.4219 798.449 70.4219C799.211 70.4219 799.703 70.7676 799.838 71.2656H800.84C800.699 70.2344 799.779 69.5723 798.455 69.5723C797.113 69.5723 796.105 70.3633 796.105 71.4121V71.418C796.105 72.3262 796.638 72.8418 797.822 73.123L798.801 73.3574C799.58 73.5449 799.902 73.8438 799.902 74.2715V74.2832C799.902 74.8574 799.299 75.2617 798.449 75.2617C797.64 75.2617 797.136 74.916 796.967 74.3887H795.924C796.041 75.4316 797.008 76.1113 798.414 76.1113Z" fill="#1D1D1F"/>
<g clip-path="url(#clip7_2_3299)">
<path d="M859.125 25.5C856.406 25.5 853.747 26.3064 851.486 27.8173C849.225 29.3282 847.462 31.4756 846.422 33.9881C845.381 36.5006 845.109 39.2653 845.639 41.9325C846.17 44.5997 847.479 47.0497 849.402 48.9727C851.325 50.8957 853.775 52.2053 856.443 52.7358C859.11 53.2663 861.874 52.994 864.387 51.9533C866.899 50.9126 869.047 49.1503 870.558 46.8891C872.069 44.6279 872.875 41.9695 872.875 39.25C872.875 35.6033 871.426 32.1059 868.848 29.5273C866.269 26.9487 862.772 25.5 859.125 25.5ZM859.125 51.35C856.732 51.35 854.392 50.6403 852.403 49.3108C850.413 47.9812 848.862 46.0915 847.946 43.8805C847.03 41.6695 846.791 39.2366 847.258 36.8894C847.724 34.5422 848.877 32.3862 850.569 30.694C852.261 29.0018 854.417 27.8494 856.764 27.3825C859.112 26.9156 861.544 27.1552 863.755 28.0711C865.966 28.9869 867.856 30.5378 869.186 32.5276C870.515 34.5174 871.225 36.8568 871.225 39.25C871.221 42.458 869.945 45.5335 867.677 47.8019C865.409 50.0703 862.333 51.3463 859.125 51.35ZM859.125 28.25C856.949 28.25 854.823 28.8951 853.014 30.1038C851.205 31.3125 849.795 33.0305 848.962 35.0405C848.13 37.0505 847.912 39.2622 848.336 41.396C848.761 43.5298 849.808 45.4898 851.347 47.0282C852.885 48.5666 854.845 49.6142 856.979 50.0386C859.113 50.4631 861.325 50.2452 863.335 49.4127C865.345 48.5801 867.062 47.1702 868.271 45.3613C869.48 43.5523 870.125 41.4256 870.125 39.25C870.125 37.8055 869.84 36.3751 869.288 35.0405C868.735 33.7059 867.925 32.4933 866.903 31.4718C865.882 30.4504 864.669 29.6401 863.335 29.0873C862 28.5345 860.57 28.25 859.125 28.25ZM859.599 34.506C859.765 34.3037 859.971 34.1386 860.205 34.0216C860.439 33.9046 860.695 33.8383 860.956 33.827C860.977 34.0896 860.945 34.3538 860.862 34.6038C860.779 34.8538 860.646 35.0845 860.472 35.282C860.32 35.4993 860.117 35.6752 859.88 35.7936C859.643 35.9121 859.38 35.9693 859.115 35.96C859.09 35.6973 859.121 35.4324 859.204 35.182C859.287 34.9317 859.422 34.7015 859.599 34.506ZM862.253 41.984C861.877 42.558 861.446 43.136 860.811 43.136C860.211 43.136 860.003 42.748 859.306 42.748C858.557 42.748 858.33 43.136 857.757 43.136C857.122 43.136 856.688 42.527 856.291 41.959C855.695 41.0579 855.363 40.0079 855.333 38.928C855.306 38.3453 855.44 37.7665 855.721 37.255C855.917 36.9079 856.198 36.616 856.537 36.4062C856.876 36.1965 857.262 36.0757 857.66 36.055C858.269 36.034 858.791 36.491 859.16 36.491C859.745 36.2992 860.345 36.1534 860.953 36.055C861.291 36.0538 861.624 36.1375 861.921 36.2984C862.218 36.4593 862.47 36.6923 862.653 36.976C862.347 37.1693 862.094 37.4362 861.918 37.7524C861.742 38.0686 861.647 38.424 861.644 38.786C861.655 39.1847 861.778 39.5722 861.999 39.9039C862.221 40.2355 862.532 40.4976 862.896 40.66C862.751 41.1319 862.535 41.5786 862.253 41.984Z" fill="#1D1D1F"/>
</g>
<path d="M842.295 76H843.402L844.252 73.5801H847.615L848.464 76H849.572L846.455 67.5449H845.412L842.295 76ZM845.886 68.9102H845.98L847.304 72.6836H844.562L845.886 68.9102ZM851.344 68.4648C851.731 68.4648 852.048 68.1484 852.048 67.7617C852.048 67.375 851.731 67.0586 851.344 67.0586C850.958 67.0586 850.641 67.375 850.641 67.7617C850.641 68.1484 850.958 68.4648 851.344 68.4648ZM850.829 76H851.848V69.6836H850.829V76ZM853.65 76H854.67V72.0859C854.67 71.1602 855.361 70.5449 856.334 70.5449C856.556 70.5449 856.75 70.5684 856.961 70.6035V69.6133C856.861 69.5957 856.644 69.5723 856.451 69.5723C855.596 69.5723 855.004 69.959 854.764 70.6211H854.67V69.6836H853.65V76ZM859.782 76H860.837V68.4941H863.561V67.5449H857.058V68.4941H859.782V76ZM865.445 76.1113C866.295 76.1113 866.957 75.7422 867.356 75.0684H867.449V76H868.469V71.6758C868.469 70.3633 867.608 69.5723 866.066 69.5723C864.719 69.5723 863.758 70.2402 863.594 71.2305L863.588 71.2656H864.608L864.613 71.248C864.777 70.7559 865.275 70.4746 866.031 70.4746C866.975 70.4746 867.449 70.8965 867.449 71.6758V72.25L865.639 72.3613C864.168 72.4492 863.336 73.0996 863.336 74.2246V74.2363C863.336 75.3848 864.244 76.1113 865.445 76.1113ZM864.379 74.2129V74.2012C864.379 73.5742 864.801 73.2344 865.762 73.1758L867.449 73.0703V73.6445C867.449 74.5469 866.693 75.2266 865.656 75.2266C864.924 75.2266 864.379 74.8516 864.379 74.2129ZM872.814 78.2266C874.536 78.2266 875.626 77.3242 875.626 75.9121V69.6836H874.607V70.7266H874.536C874.15 70.0117 873.458 69.5723 872.568 69.5723C870.915 69.5723 869.896 70.8555 869.896 72.625V72.6367C869.896 74.4062 870.909 75.6719 872.544 75.6719C873.411 75.6719 874.126 75.2793 874.525 74.582H874.618V75.8594C874.618 76.791 873.945 77.3242 872.814 77.3242C871.905 77.3242 871.343 76.9844 871.232 76.5039L871.226 76.498H870.171L870.159 76.5039C870.318 77.541 871.29 78.2266 872.814 78.2266ZM872.767 74.7695C871.595 74.7695 870.939 73.8906 870.939 72.6367V72.625C870.939 71.3711 871.595 70.4746 872.767 70.4746C873.933 70.4746 874.642 71.3711 874.642 72.625V72.6367C874.642 73.8906 873.939 74.7695 872.767 74.7695Z" fill="#1D1D1F"/>
<g clip-path="url(#clip8_2_3299)">
<path d="M954.695 8.09658C954.344 7.40428 953.782 6.84186 953.09 6.49108C952.741 6.31584 952.37 6.19041 951.986 6.11848C951.592 6.04684 951.193 6.00728 950.793 6.00018C950.425 5.98878 949.938 6.00018 949.551 6.00018H936.827C936.662 6.00018 936.5 6.00018 936.338 6.00068C935.725 5.98281 935.112 6.02225 934.507 6.11848C934.123 6.19048 933.752 6.3159 933.403 6.49108C932.711 6.84217 932.149 7.40451 931.798 8.09658C931.623 8.44525 931.497 8.81672 931.425 9.20018C931.365 9.52419 931.328 9.85215 931.315 10.1815C931.3 10.5067 931.298 10.8592 931.297 11.1943V11.6352V47.3512C931.297 47.5001 931.297 47.647 931.297 47.7921C931.297 48.1272 931.3 48.4797 931.315 48.805C931.328 49.1343 931.365 49.4623 931.425 49.7863C931.497 50.1698 931.623 50.5414 931.798 50.8902C932.149 51.5824 932.711 52.1448 933.403 52.4958C933.752 52.6709 934.124 52.7963 934.507 52.8683C934.901 52.94 935.3 52.9796 935.701 52.9868C936.068 52.9982 936.555 52.9968 936.942 52.9968C941.663 52.9968 943.288 53.0002 948.009 53.0002C947.891 52.9002 947.789 52.7617 947.639 52.6379C947.442 52.4326 947.263 52.2102 947.105 51.9734C946.912 51.6931 946.762 51.3863 946.658 51.0625C946.553 50.7302 946.472 50.3908 946.415 50.047C946.359 49.7495 946.326 49.4482 946.314 49.1457C946.3 48.8468 946.298 48.5233 946.297 48.2157C946.297 48.081 946.297 47.9451 946.297 47.8071V14.1934C946.297 14.0554 946.297 13.9196 946.297 13.785C946.297 13.4772 946.3 13.1536 946.314 12.855C946.326 12.5525 946.36 12.2512 946.415 11.9536C946.481 11.6007 946.597 11.2589 946.758 10.9382C947.081 10.3014 947.598 9.78403 948.235 9.46128C948.556 9.30009 948.898 9.18473 949.251 9.11858C949.802 9.02745 950.36 8.98811 950.919 9.00108C951.08 9.00018 951.243 9.00018 951.408 9.00018H955.162M941.632 12.681C941.632 12.9449 941.632 13.1286 941.631 13.2822C941.631 13.4332 941.629 13.5583 941.625 13.6732C941.62 13.8983 941.595 14.1226 941.55 14.3432C941.501 14.5735 941.422 14.796 941.312 15.0044C941.085 15.4355 940.733 15.7879 940.301 16.0152C940.093 16.1244 939.871 16.2043 939.64 16.2528C939.42 16.298 939.195 16.3233 938.97 16.3284C938.855 16.3324 938.73 16.3338 938.579 16.3342C938.426 16.3349 938.242 16.3348 937.978 16.3348H936.616C936.352 16.3348 936.168 16.3348 936.015 16.3342C935.864 16.3342 935.739 16.3324 935.624 16.3284C935.399 16.3233 935.174 16.298 934.954 16.2528C934.723 16.2043 934.501 16.1244 934.293 16.0152C933.861 15.7879 933.509 15.4355 933.282 15.0044C933.172 14.796 933.093 14.5735 933.044 14.3432C932.999 14.1226 932.974 13.8983 932.969 13.6732C932.965 13.5583 932.963 13.4332 932.963 13.2822C932.962 13.1285 932.962 12.9449 932.962 12.681V11.3194C932.962 11.0554 932.962 10.8718 932.963 10.7182C932.963 10.567 932.965 10.4419 932.969 10.3271C932.974 10.1019 932.999 9.87769 933.044 9.65708C933.093 9.42681 933.173 9.20431 933.282 8.99588C933.509 8.56469 933.861 8.21222 934.292 7.98468C934.501 7.87548 934.723 7.79553 934.953 7.74708C935.174 7.70187 935.398 7.67657 935.623 7.67148C935.738 7.66748 935.863 7.66618 936.014 7.66558H936.616H937.978H938.579C938.73 7.66618 938.855 7.66748 938.97 7.67148C939.195 7.67653 939.42 7.70183 939.64 7.74708C939.871 7.79553 940.093 7.87548 940.301 7.98468C940.733 8.21205 941.085 8.56438 941.312 8.99548C941.422 9.20386 941.501 9.42637 941.55 9.65668C941.595 9.87729 941.62 10.1015 941.625 10.3267C941.629 10.4416 941.631 10.5667 941.631 10.7178C941.632 10.8715 941.632 11.0551 941.632 11.319V12.681ZM966.297 27.3082V48.6921C966.262 49.0693 966.081 49.4178 965.792 49.6625C965.503 49.9073 965.129 50.0285 964.751 50.0002H951.842C951.465 50.0285 951.091 49.9073 950.802 49.6625C950.513 49.4178 950.331 49.0693 950.297 48.6921V27.3133C950.331 26.9347 950.513 26.5848 950.803 26.3392C951.094 26.0935 951.469 25.9718 951.848 26.0002H964.752C965.129 25.9718 965.503 26.0931 965.792 26.3378C966.081 26.5825 966.262 26.931 966.297 27.3082ZM969.297 14.8216C969.296 14.5138 969.295 14.1902 969.28 13.8916C969.268 13.5891 969.234 13.2878 969.179 12.9902C969.113 12.6373 968.997 12.2955 968.836 11.9748C968.513 11.3381 967.996 10.8209 967.359 10.498C967.038 10.3367 966.697 10.2213 966.344 10.1552C965.981 10.0892 965.614 10.0527 965.246 10.0462C964.908 10.0362 964.46 10.037 964.104 10.037H952.384C952.218 10.037 952.055 10.037 951.894 10.0378C951.335 10.0247 950.777 10.064 950.225 10.1552C949.872 10.2213 949.531 10.3367 949.21 10.498C948.573 10.8206 948.056 11.3378 947.733 11.9746C947.572 12.2954 947.456 12.6373 947.39 12.9902C947.335 13.2878 947.301 13.5891 947.289 13.8916C947.274 14.1904 947.298 14.514 947.297 14.8216V15.2301V47.8069V48.2155C947.297 48.5233 947.274 48.8468 947.289 49.1455C947.301 49.448 947.335 49.7492 947.39 50.0468C947.456 50.3997 947.572 50.7415 947.733 51.0623C948.056 51.6991 948.573 52.2164 949.21 52.5392C949.531 52.7003 949.872 52.8156 950.225 52.8819C950.588 52.9479 950.955 52.9844 951.323 52.9908C951.661 53.0013 952.109 52.9999 952.465 52.9999H964.185H964.675C965.234 53.0128 965.792 52.9735 966.343 52.8824C966.696 52.8162 967.038 52.7008 967.359 52.5397C967.996 52.2167 968.513 51.6994 968.836 51.0628C968.997 50.742 969.112 50.4002 969.178 50.0473C969.234 49.7497 969.268 49.4485 969.28 49.146C969.294 48.8471 969.296 48.5236 969.296 48.216C969.296 48.0813 969.296 47.9454 969.296 47.8074V15.2302C969.297 15.0921 969.297 14.9563 969.297 14.8216ZM948.961 14.705C948.962 14.5544 948.963 14.4297 948.967 14.315C948.972 14.0905 948.997 13.867 949.042 13.6471C949.091 13.4177 949.17 13.196 949.279 12.9883C949.505 12.5588 949.856 12.2079 950.286 11.9818C950.493 11.873 950.715 11.7933 950.945 11.745C951.164 11.6999 951.388 11.6747 951.613 11.6697C951.727 11.6658 951.851 11.6645 952.002 11.6639C952.155 11.6633 952.338 11.6639 952.601 11.6639H953.993H954.448C954.594 11.6639 954.756 11.6639 954.903 11.6676C955.207 11.6684 955.51 11.7072 955.804 11.7832C956.139 11.8729 956.45 12.0336 956.717 12.2544C956.984 12.4751 957.201 12.7507 957.352 13.0625C957.494 13.3634 957.581 13.6874 957.608 14.0191C957.624 14.1772 957.629 14.3355 957.631 14.5191C957.634 14.6869 957.633 14.9486 957.633 15.3042V16.6969C957.633 16.9597 957.633 17.1427 957.633 17.2957C957.632 17.4462 957.631 17.5709 957.627 17.6852C957.622 17.9096 957.596 18.1332 957.551 18.3531C957.503 18.5825 957.423 18.8042 957.315 19.0119C957.088 19.4414 956.737 19.7924 956.308 20.0189C956.1 20.1277 955.878 20.2073 955.649 20.2556C955.429 20.3006 955.205 20.3258 954.981 20.3308C954.867 20.3348 954.742 20.3362 954.592 20.3367C954.438 20.3373 954.255 20.3367 953.992 20.3367H952.601C952.245 20.3367 951.984 20.3367 951.816 20.335C951.632 20.3327 951.474 20.3271 951.316 20.3118C950.984 20.2848 950.66 20.198 950.359 20.0556C950.117 19.9383 949.896 19.7814 949.706 19.5912C949.407 19.2906 949.191 18.917 949.08 18.5075C949.004 18.2133 948.965 17.9107 948.964 17.6069C948.961 17.46 948.961 17.2981 948.961 17.1515C948.961 16.9999 948.961 16.8486 948.961 16.6965V15.3038C948.961 15.0409 948.96 14.8579 948.961 14.705H948.961ZM967.297 48.6921C967.264 49.3351 966.978 49.939 966.501 50.3715C966.024 50.804 965.395 51.0301 964.751 51.0002H951.842C951.199 51.0301 950.57 50.804 950.093 50.3715C949.616 49.939 949.33 49.3351 949.297 48.6921V27.3133C949.33 26.6688 949.617 26.0637 950.095 25.6302C950.573 25.1967 951.203 24.9702 951.848 25.0002H964.752C965.395 24.9703 966.024 25.1963 966.501 25.6289C966.978 26.0614 967.264 26.6652 967.297 27.3082V48.6921Z" fill="#1D1D1F"/>
</g>
<path d="M917.296 76H918.403L919.253 73.5801H922.616L923.466 76H924.573L921.456 67.5449H920.413L917.296 76ZM920.887 68.9102H920.981L922.305 72.6836H919.563L920.887 68.9102ZM928.039 76.1113C929.557 76.1113 930.406 75.2969 930.664 74.1543L930.676 74.0898L929.668 74.0957L929.656 74.1309C929.422 74.834 928.883 75.209 928.033 75.209C926.908 75.209 926.182 74.2773 926.182 72.8242V72.8125C926.182 71.3887 926.896 70.4746 928.033 70.4746C928.941 70.4746 929.504 70.9785 929.662 71.5996L929.668 71.6172H930.682L930.676 71.582C930.488 70.457 929.568 69.5723 928.033 69.5723C926.264 69.5723 925.139 70.8496 925.139 72.8125V72.8242C925.139 74.8281 926.269 76.1113 928.039 76.1113ZM934.634 76.1113C936.151 76.1113 937.001 75.2969 937.259 74.1543L937.271 74.0898L936.263 74.0957L936.251 74.1309C936.017 74.834 935.478 75.209 934.628 75.209C933.503 75.209 932.776 74.2773 932.776 72.8242V72.8125C932.776 71.3887 933.491 70.4746 934.628 70.4746C935.536 70.4746 936.099 70.9785 936.257 71.5996L936.263 71.6172H937.276L937.271 71.582C937.083 70.457 936.163 69.5723 934.628 69.5723C932.858 69.5723 931.733 70.8496 931.733 72.8125V72.8242C931.733 74.8281 932.864 76.1113 934.634 76.1113ZM941.223 76.1113C942.711 76.1113 943.613 75.2676 943.83 74.4121L943.842 74.3652H942.822L942.799 74.418C942.629 74.7988 942.102 75.2031 941.246 75.2031C940.121 75.2031 939.401 74.4414 939.371 73.1348H943.918V72.7363C943.918 70.8496 942.875 69.5723 941.158 69.5723C939.442 69.5723 938.328 70.9082 938.328 72.8594V72.8652C938.328 74.8457 939.418 76.1113 941.223 76.1113ZM941.152 70.4805C942.084 70.4805 942.776 71.0723 942.881 72.3203H939.389C939.5 71.1191 940.215 70.4805 941.152 70.4805ZM947.548 76.1113C948.984 76.1113 950.079 75.332 950.079 74.207V74.1953C950.079 73.293 949.505 72.7773 948.316 72.4902L947.343 72.2559C946.599 72.0742 946.282 71.8047 946.282 71.377V71.3652C946.282 70.8086 946.833 70.4219 947.583 70.4219C948.345 70.4219 948.837 70.7676 948.972 71.2656H949.974C949.833 70.2344 948.913 69.5723 947.589 69.5723C946.247 69.5723 945.24 70.3633 945.24 71.4121V71.418C945.24 72.3262 945.773 72.8418 946.956 73.123L947.935 73.3574C948.714 73.5449 949.036 73.8438 949.036 74.2715V74.2832C949.036 74.8574 948.433 75.2617 947.583 75.2617C946.775 75.2617 946.271 74.916 946.101 74.3887H945.058C945.175 75.4316 946.142 76.1113 947.548 76.1113ZM953.592 76.1113C955.028 76.1113 956.123 75.332 956.123 74.207V74.1953C956.123 73.293 955.549 72.7773 954.36 72.4902L953.387 72.2559C952.643 72.0742 952.327 71.8047 952.327 71.377V71.3652C952.327 70.8086 952.877 70.4219 953.627 70.4219C954.389 70.4219 954.881 70.7676 955.016 71.2656H956.018C955.877 70.2344 954.957 69.5723 953.633 69.5723C952.291 69.5723 951.284 70.3633 951.284 71.4121V71.418C951.284 72.3262 951.817 72.8418 953 73.123L953.979 73.3574C954.758 73.5449 955.08 73.8438 955.08 74.2715V74.2832C955.08 74.8574 954.477 75.2617 953.627 75.2617C952.819 75.2617 952.315 74.916 952.145 74.3887H951.102C951.219 75.4316 952.186 76.1113 953.592 76.1113ZM960.181 76.1113C961.98 76.1113 963.093 74.8691 963.093 72.8477V72.8359C963.093 70.8086 961.98 69.5723 960.181 69.5723C958.382 69.5723 957.269 70.8086 957.269 72.8359V72.8477C957.269 74.8691 958.382 76.1113 960.181 76.1113ZM960.181 75.209C958.986 75.209 958.312 74.3359 958.312 72.8477V72.8359C958.312 71.3418 958.986 70.4746 960.181 70.4746C961.376 70.4746 962.05 71.3418 962.05 72.8359V72.8477C962.05 74.3359 961.376 75.209 960.181 75.209ZM964.555 76H965.575V72.0859C965.575 71.1602 966.266 70.5449 967.239 70.5449C967.462 70.5449 967.655 70.5684 967.866 70.6035V69.6133C967.766 69.5957 967.549 69.5723 967.356 69.5723C966.501 69.5723 965.909 69.959 965.669 70.6211H965.575V69.6836H964.555V76ZM969.545 68.4648C969.931 68.4648 970.248 68.1484 970.248 67.7617C970.248 67.375 969.931 67.0586 969.545 67.0586C969.158 67.0586 968.842 67.375 968.842 67.7617C968.842 68.1484 969.158 68.4648 969.545 68.4648ZM969.029 76H970.049V69.6836H969.029V76ZM974.429 76.1113C975.917 76.1113 976.819 75.2676 977.036 74.4121L977.048 74.3652H976.028L976.005 74.418C975.835 74.7988 975.307 75.2031 974.452 75.2031C973.327 75.2031 972.606 74.4414 972.577 73.1348H977.124V72.7363C977.124 70.8496 976.081 69.5723 974.364 69.5723C972.647 69.5723 971.534 70.9082 971.534 72.8594V72.8652C971.534 74.8457 972.624 76.1113 974.429 76.1113ZM974.358 70.4805C975.29 70.4805 975.981 71.0723 976.087 72.3203H972.595C972.706 71.1191 973.421 70.4805 974.358 70.4805ZM980.754 76.1113C982.189 76.1113 983.285 75.332 983.285 74.207V74.1953C983.285 73.293 982.711 72.7773 981.521 72.4902L980.549 72.2559C979.805 72.0742 979.488 71.8047 979.488 71.377V71.3652C979.488 70.8086 980.039 70.4219 980.789 70.4219C981.551 70.4219 982.043 70.7676 982.178 71.2656H983.18C983.039 70.2344 982.119 69.5723 980.795 69.5723C979.453 69.5723 978.445 70.3633 978.445 71.4121V71.418C978.445 72.3262 978.979 72.8418 980.162 73.123L981.141 73.3574C981.92 73.5449 982.242 73.8438 982.242 74.2715V74.2832C982.242 74.8574 981.639 75.2617 980.789 75.2617C979.98 75.2617 979.477 74.916 979.307 74.3887H978.264C978.381 75.4316 979.348 76.1113 980.754 76.1113Z" fill="#1D1D1F"/>
<g clip-path="url(#clip9_2_3299)">
<path d="M1069.08 27H1041.08C1038.87 27 1037.08 28.79 1037.08 31V49C1037.08 51.21 1038.87 53 1041.08 53H1069.08C1071.29 53 1073.08 51.21 1073.08 49V31C1073.08 28.79 1071.29 27 1069.08 27ZM1044.37 30.45C1044.64 30.13 1045.05 29.92 1045.42 29.92C1045.44 30.34 1045.32 30.71 1045.05 31.01C1044.81 31.33 1044.38 31.62 1044 31.57C1043.91 31.15 1044.15 30.72 1044.37 30.45ZM1046.41 36.15C1046.12 36.59 1045.78 37.08 1045.29 37.08C1044.83 37.08 1044.65 36.77 1044.11 36.77C1043.54 36.77 1043.37 37.08 1042.93 37.08C1042.44 37.08 1042.12 36.59 1041.81 36.15C1041.41 35.58 1041.08 34.65 1041.07 33.79C1041.06 33.33 1041.16 32.93 1041.38 32.55C1041.69 32.02 1042.26 31.63 1042.87 31.62C1043.34 31.6 1043.76 31.93 1044.05 31.93C1044.32 31.93 1044.84 31.63 1045.41 31.62C1045.78 31.61 1046.3 31.73 1046.71 32.36C1046.68 32.38 1045.9 32.78 1045.9 33.71C1045.94 34.77 1046.88 35.15 1046.89 35.15C1046.89 35.18 1046.77 35.64 1046.41 36.15Z" fill="#1D1D1F"/>
</g>
<path d="M1024.63 76H1025.74L1026.59 73.5801H1029.95L1030.8 76H1031.91L1028.79 67.5449H1027.75L1024.63 76ZM1028.23 68.9102H1028.32L1029.64 72.6836H1026.9L1028.23 68.9102ZM1033.15 78.1094H1034.16V75.0039H1034.26C1034.6 75.6777 1035.36 76.1113 1036.23 76.1113C1037.83 76.1113 1038.88 74.8281 1038.88 72.8477V72.8359C1038.88 70.8672 1037.83 69.5723 1036.23 69.5723C1035.35 69.5723 1034.65 69.9883 1034.26 70.6914H1034.16V69.6836H1033.15V78.1094ZM1035.99 75.209C1034.84 75.209 1034.14 74.3066 1034.14 72.8477V72.8359C1034.14 71.377 1034.84 70.4746 1035.99 70.4746C1037.15 70.4746 1037.83 71.3652 1037.83 72.8359V72.8477C1037.83 74.3184 1037.15 75.209 1035.99 75.209ZM1040.35 78.1094H1041.37V75.0039H1041.46C1041.81 75.6777 1042.56 76.1113 1043.43 76.1113C1045.04 76.1113 1046.08 74.8281 1046.08 72.8477V72.8359C1046.08 70.8672 1045.03 69.5723 1043.43 69.5723C1042.55 69.5723 1041.85 69.9883 1041.46 70.6914H1041.37V69.6836H1040.35V78.1094ZM1043.2 75.209C1042.05 75.209 1041.35 74.3066 1041.35 72.8477V72.8359C1041.35 71.377 1042.05 70.4746 1043.2 70.4746C1044.35 70.4746 1045.04 71.3652 1045.04 72.8359V72.8477C1045.04 74.3184 1044.35 75.209 1043.2 75.209ZM1047.61 76H1048.63V67.1758H1047.61V76ZM1053.05 76.1113C1054.54 76.1113 1055.44 75.2676 1055.65 74.4121L1055.67 74.3652H1054.65L1054.62 74.418C1054.45 74.7988 1053.93 75.2031 1053.07 75.2031C1051.95 75.2031 1051.22 74.4414 1051.2 73.1348H1055.74V72.7363C1055.74 70.8496 1054.7 69.5723 1052.98 69.5723C1051.27 69.5723 1050.15 70.9082 1050.15 72.8594V72.8652C1050.15 74.8457 1051.24 76.1113 1053.05 76.1113ZM1052.98 70.4805C1053.91 70.4805 1054.6 71.0723 1054.7 72.3203H1051.21C1051.32 71.1191 1052.04 70.4805 1052.98 70.4805ZM1063.99 76.1992C1065.79 76.1992 1067.13 75.1973 1067.41 73.6504V73.6387H1066.34L1066.33 73.6504C1066.07 74.623 1065.17 75.2266 1063.99 75.2266C1062.36 75.2266 1061.34 73.8965 1061.34 71.7812V71.7695C1061.34 69.6543 1062.36 68.3184 1063.99 68.3184C1065.15 68.3184 1066.05 69.0039 1066.34 70.0879L1066.34 70.0996H1067.4L1067.41 70.0879C1067.16 68.4648 1065.77 67.3457 1063.99 67.3457C1061.69 67.3457 1060.26 69.0449 1060.26 71.7695V71.7812C1060.26 74.5 1061.7 76.1992 1063.99 76.1992ZM1070.66 76.1113C1071.51 76.1113 1072.18 75.7422 1072.57 75.0684H1072.67V76H1073.69V71.6758C1073.69 70.3633 1072.83 69.5723 1071.28 69.5723C1069.94 69.5723 1068.98 70.2402 1068.81 71.2305L1068.81 71.2656H1069.83L1069.83 71.248C1070 70.7559 1070.49 70.4746 1071.25 70.4746C1072.19 70.4746 1072.67 70.8965 1072.67 71.6758V72.25L1070.86 72.3613C1069.39 72.4492 1068.55 73.0996 1068.55 74.2246V74.2363C1068.55 75.3848 1069.46 76.1113 1070.66 76.1113ZM1069.6 74.2129V74.2012C1069.6 73.5742 1070.02 73.2344 1070.98 73.1758L1072.67 73.0703V73.6445C1072.67 74.5469 1071.91 75.2266 1070.87 75.2266C1070.14 75.2266 1069.6 74.8516 1069.6 74.2129ZM1075.43 76H1076.45V72.0859C1076.45 71.1602 1077.14 70.5449 1078.11 70.5449C1078.34 70.5449 1078.53 70.5684 1078.74 70.6035V69.6133C1078.64 69.5957 1078.42 69.5723 1078.23 69.5723C1077.38 69.5723 1076.78 69.959 1076.54 70.6211H1076.45V69.6836H1075.43V76ZM1082.04 76.1113C1082.92 76.1113 1083.62 75.6953 1084.01 74.9922H1084.1V76H1085.12V67.1758H1084.1V70.6797H1084.01C1083.66 70.0059 1082.9 69.5723 1082.04 69.5723C1080.43 69.5723 1079.39 70.8555 1079.39 72.8359V72.8477C1079.39 74.8164 1080.44 76.1113 1082.04 76.1113ZM1082.27 75.209C1081.12 75.209 1080.43 74.3184 1080.43 72.8477V72.8359C1080.43 71.3652 1081.12 70.4746 1082.27 70.4746C1083.42 70.4746 1084.12 71.377 1084.12 72.8359V72.8477C1084.12 74.3066 1083.42 75.209 1082.27 75.209Z" fill="#1D1D1F"/>
<g clip-path="url(#clip10_2_3299)">
<path d="M1145.11 37.46C1145.11 40.32 1143.62 42.13 1141.24 42.13C1138.86 42.13 1137.37 40.32 1137.37 37.46C1137.37 34.59 1138.86 32.79 1141.24 32.79C1143.62 32.79 1145.11 34.59 1145.11 37.46ZM1160.25 29.8V44.2C1160.25 45.34 1160.24 47.14 1159.62 48.74C1159.31 49.53 1158.59 50.64 1157.57 51.43C1156.98 51.88 1156.28 52.32 1155.32 52.6C1154.29 52.9 1153.02 53 1151.45 53H1137.05C1135.48 53 1134.21 52.9 1133.18 52.59C1132.22 52.3 1131.52 51.87 1130.93 51.42C1129.91 50.64 1129.19 49.52 1128.88 48.73C1128.26 47.14 1128.25 45.34 1128.25 44.2V29.8C1128.25 28.66 1128.26 26.86 1128.88 25.26C1129.19 24.47 1129.91 23.36 1130.93 22.57C1131.52 22.12 1132.22 21.68 1133.18 21.4C1134.21 21.1 1135.48 21 1137.05 21H1151.45C1153.03 21 1154.29 21.1 1155.32 21.41C1156.28 21.7 1156.99 22.13 1157.57 22.58C1158.59 23.36 1159.31 24.48 1159.62 25.27C1160.24 26.86 1160.25 28.66 1160.25 29.8ZM1134.56 43.27V36.33H1133.13V43.27H1134.56ZM1134.66 34.4C1134.66 33.95 1134.3 33.58 1133.84 33.58C1133.39 33.58 1133.02 33.94 1133.02 34.4C1133.02 34.85 1133.39 35.22 1133.84 35.22C1134.3 35.21 1134.66 34.85 1134.66 34.4ZM1146.6 37.46C1146.6 33.77 1144.54 31.45 1141.24 31.45C1137.94 31.45 1135.88 33.77 1135.88 37.46C1135.88 41.15 1137.94 43.46 1141.24 43.46C1144.54 43.46 1146.6 41.15 1146.6 37.46ZM1155.88 39.97C1155.88 38.33 1154.92 37.36 1152.5 36.83L1151.21 36.55C1149.62 36.2 1149 35.57 1149 34.66C1149 33.47 1150.12 32.77 1151.57 32.77C1153.09 32.77 1154.09 33.55 1154.22 34.82H1155.67C1155.6 32.85 1153.93 31.46 1151.61 31.46C1149.2 31.46 1147.51 32.81 1147.51 34.72C1147.51 36.37 1148.52 37.43 1150.85 37.93L1152.14 38.21C1153.75 38.56 1154.4 39.21 1154.4 40.18C1154.4 41.33 1153.25 42.15 1151.68 42.15C1150.01 42.15 1148.85 41.39 1148.68 40.14H1147.23C1147.37 42.15 1149.06 43.45 1151.6 43.45C1154.19 43.46 1155.88 42.12 1155.88 39.97Z" fill="#1D1D1F"/>
</g>
<path d="M1127.92 68.4648C1128.3 68.4648 1128.62 68.1484 1128.62 67.7617C1128.62 67.375 1128.3 67.0586 1127.92 67.0586C1127.53 67.0586 1127.21 67.375 1127.21 67.7617C1127.21 68.1484 1127.53 68.4648 1127.92 68.4648ZM1127.4 76H1128.42V69.6836H1127.4V76ZM1133.9 76.1992C1136.32 76.1992 1137.78 74.4707 1137.78 71.7754V71.7637C1137.78 69.0566 1136.31 67.3457 1133.9 67.3457C1131.51 67.3457 1130.02 69.0508 1130.02 71.7637V71.7754C1130.02 74.4766 1131.48 76.1992 1133.9 76.1992ZM1133.9 75.2266C1132.15 75.2266 1131.1 73.8672 1131.1 71.7754V71.7637C1131.1 69.6543 1132.18 68.3184 1133.9 68.3184C1135.63 68.3184 1136.7 69.6543 1136.7 71.7637V71.7754C1136.7 73.8672 1135.64 75.2266 1133.9 75.2266ZM1142.26 76.1992C1144.15 76.1992 1145.38 75.2148 1145.38 73.6328V73.627C1145.38 72.4082 1144.69 71.6992 1142.92 71.3066L1141.99 71.0957C1140.84 70.8438 1140.37 70.3867 1140.37 69.7129V69.707C1140.37 68.8223 1141.19 68.3242 1142.24 68.3184C1143.35 68.3125 1144.05 68.8633 1144.17 69.6074L1144.18 69.6836H1145.23L1145.23 69.6016C1145.14 68.3418 1143.96 67.3457 1142.27 67.3457C1140.53 67.3457 1139.3 68.3359 1139.3 69.7363V69.7422C1139.3 70.9668 1140.03 71.7461 1141.72 72.1211L1142.66 72.3262C1143.82 72.584 1144.31 73.0645 1144.31 73.7676V73.7734C1144.31 74.6348 1143.47 75.2266 1142.32 75.2266C1141.1 75.2266 1140.22 74.6934 1140.15 73.8496L1140.14 73.7852H1139.09L1139.09 73.8496C1139.21 75.2266 1140.41 76.1992 1142.26 76.1992ZM1152.21 76H1153.27V67.5449H1152.22L1149.97 69.1621V70.2754L1152.12 68.7168H1152.21V76ZM1158.58 76.1992C1160.28 76.1992 1161.54 74.9746 1161.54 73.2871V73.2754C1161.54 71.6523 1160.35 70.4453 1158.76 70.4453C1157.62 70.4453 1156.83 71.0605 1156.51 71.752H1156.4C1156.4 71.6875 1156.4 71.6172 1156.41 71.5527C1156.47 69.7891 1157.1 68.2891 1158.64 68.2891C1159.49 68.2891 1160.08 68.7285 1160.34 69.4375L1160.36 69.502H1161.42L1161.41 69.4258C1161.12 68.1777 1160.07 67.3457 1158.65 67.3457C1156.6 67.3457 1155.4 69.0332 1155.4 71.916V71.9277C1155.4 75.1094 1157.03 76.1992 1158.58 76.1992ZM1156.66 73.2754V73.2695C1156.66 72.168 1157.49 71.3652 1158.58 71.3652C1159.68 71.3652 1160.48 72.1738 1160.48 73.2988V73.3105C1160.48 74.4062 1159.63 75.2676 1158.57 75.2676C1157.49 75.2676 1156.66 74.3887 1156.66 73.2754Z" fill="#1D1D1F"/>
<g clip-path="url(#clip11_2_3299)">
<path d="M1258.07 50.5001C1258.07 50.7236 1258 50.9421 1257.88 51.1279C1257.75 51.3137 1257.58 51.4586 1257.37 51.5441C1257.16 51.6296 1256.94 51.652 1256.72 51.6084C1256.5 51.5648 1256.3 51.4572 1256.14 51.2991C1255.98 51.1411 1255.87 50.9397 1255.83 50.7205C1255.79 50.5013 1255.81 50.2741 1255.89 50.0677C1255.98 49.8612 1256.12 49.6847 1256.31 49.5605C1256.5 49.4364 1256.71 49.3701 1256.94 49.3701C1257.24 49.3704 1257.52 49.4896 1257.74 49.7014C1257.95 49.9133 1258.07 50.2005 1258.07 50.5001ZM1266.44 16.0001V50.0001C1266.44 50.7957 1266.12 51.5588 1265.56 52.1214C1265 52.684 1264.23 53.0001 1263.44 53.0001H1250.44C1249.69 52.9983 1248.97 52.7168 1248.42 52.2113C1248.58 52.0067 1248.72 51.7882 1248.84 51.5585C1249.04 51.1624 1249.19 50.74 1249.27 50.3039C1249.37 49.689 1249.42 49.0655 1249.4 48.4421V48.0001H1265.44V18.0001H1249.4V14.6049V14.3091C1249.4 13.9374 1249.39 13.5717 1249.36 13.2082C1249.7 13.0726 1250.07 13.002 1250.44 13.0001H1263.44C1264.23 13.0001 1265 13.3162 1265.56 13.8788C1266.12 14.4414 1266.44 15.2044 1266.44 16.0001ZM1253.31 15.5001C1253.31 15.4259 1253.29 15.3534 1253.25 15.2918C1253.21 15.2301 1253.15 15.182 1253.08 15.1536C1253.01 15.1253 1252.94 15.1178 1252.86 15.1323C1252.79 15.1468 1252.72 15.1825 1252.67 15.2349C1252.62 15.2874 1252.58 15.3542 1252.57 15.4269C1252.56 15.4997 1252.56 15.5751 1252.59 15.6436C1252.62 15.7121 1252.67 15.7707 1252.73 15.8119C1252.79 15.8531 1252.86 15.8751 1252.94 15.8751C1253.04 15.8751 1253.13 15.8356 1253.2 15.7652C1253.27 15.6949 1253.31 15.5995 1253.31 15.5001ZM1259.44 15.5001C1259.44 15.4338 1259.41 15.3704 1259.36 15.3235C1259.32 15.2767 1259.25 15.2503 1259.19 15.2501H1254.69C1254.62 15.2501 1254.56 15.2764 1254.51 15.3233C1254.46 15.3702 1254.44 15.4338 1254.44 15.5001C1254.44 15.5664 1254.46 15.63 1254.51 15.6769C1254.56 15.7238 1254.62 15.7501 1254.69 15.7501H1259.19C1259.25 15.7499 1259.32 15.7235 1259.36 15.6767C1259.41 15.6298 1259.44 15.5663 1259.44 15.5001ZM1258.69 50.5001C1258.69 50.154 1258.58 49.8156 1258.39 49.5278C1258.2 49.2401 1257.93 49.0158 1257.61 48.8833C1257.29 48.7509 1256.94 48.7162 1256.6 48.7837C1256.26 48.8512 1255.94 49.0179 1255.7 49.2627C1255.46 49.5074 1255.29 49.8192 1255.22 50.1587C1255.15 50.4982 1255.19 50.85 1255.32 51.1698C1255.45 51.4896 1255.68 51.7629 1255.97 51.9552C1256.25 52.1475 1256.59 52.2501 1256.94 52.2501C1257.4 52.2501 1257.85 52.0657 1258.17 51.7375C1258.5 51.4093 1258.69 50.9642 1258.69 50.5001ZM1214.37 16.2549C1214.1 16.4238 1213.8 16.5327 1213.49 16.574C1213.18 16.6153 1212.86 16.5881 1212.56 16.4941C1212.26 16.4002 1211.98 16.2419 1211.75 16.0301C1211.51 15.8184 1211.33 15.5583 1211.21 15.268C1211.09 14.9609 1211.05 14.6307 1211.09 14.3045C1211.12 13.9782 1211.24 13.6654 1211.42 13.3916C1211.6 13.1178 1211.84 12.891 1212.13 12.7298C1212.41 12.5687 1212.73 12.4777 1213.06 12.4645C1213.52 12.4225 1213.98 12.5359 1214.37 12.7866C1214.76 13.0374 1215.05 13.4109 1215.2 13.8475C1215.35 14.2842 1215.35 14.7586 1215.2 15.1951C1215.05 15.6315 1214.76 16.0047 1214.37 16.2549ZM1218.05 15.0401C1217.7 15.0524 1217.36 15.1511 1217.07 15.3272C1216.77 15.5033 1216.52 15.7512 1216.34 16.0483C1216.16 16.3453 1216.06 16.6821 1216.05 17.0279C1216.03 17.3737 1216.11 17.7176 1216.26 18.0281C1216.4 18.2926 1216.6 18.5246 1216.84 18.7095C1217.07 18.8944 1217.35 19.0283 1217.64 19.1027C1217.93 19.1771 1218.24 19.1904 1218.53 19.1418C1218.83 19.0932 1219.11 18.9837 1219.37 18.8203C1219.75 18.5673 1220.04 18.1935 1220.19 17.758C1220.33 17.3225 1220.33 16.8503 1220.18 16.4163C1220.03 15.9822 1219.74 15.6111 1219.35 15.3619C1218.96 15.1126 1218.5 14.9993 1218.05 15.0401ZM1213.15 17.6201C1212.81 17.6193 1212.48 17.7006 1212.18 17.8569C1211.88 18.0133 1211.63 18.24 1211.44 18.5174C1211.25 18.7948 1211.13 19.1145 1211.09 19.4489C1211.05 19.7833 1211.09 20.1223 1211.21 20.4364C1211.37 20.7969 1211.62 21.1081 1211.94 21.3364C1212.26 21.5647 1212.63 21.7016 1213.03 21.7322C1213.42 21.7629 1213.81 21.6861 1214.16 21.5103C1214.51 21.3345 1214.81 21.0662 1215.02 20.7343C1215.21 20.4139 1215.31 20.0483 1215.31 19.6762C1215.31 19.3041 1215.2 18.9393 1215.01 18.6203C1214.82 18.3013 1214.55 18.04 1214.22 17.8639C1213.89 17.6879 1213.52 17.6036 1213.15 17.6201ZM1227 51.5589C1227.18 51.9068 1227.41 52.2283 1227.68 52.5143C1227.36 52.6658 1227.02 52.7767 1226.67 52.8443C1226.27 52.9162 1225.87 52.9559 1225.46 52.9631C1225.09 52.9746 1224.6 52.9731 1224.21 52.9731H1214.15H1213.73C1213.62 52.9731 1213.51 52.9727 1213.4 52.9719C1212.83 52.982 1212.25 52.9394 1211.69 52.8445C1211.3 52.7724 1210.93 52.6466 1210.57 52.4708C1209.88 52.1202 1209.31 51.5562 1208.95 50.8608C1208.77 50.5114 1208.65 50.1387 1208.57 49.7538C1208.47 49.1375 1208.43 48.5129 1208.45 47.8884C1208.45 47.7802 1208.45 47.6712 1208.45 47.5615V15.1885C1208.45 15.0786 1208.45 14.9696 1208.45 14.8615C1208.43 14.237 1208.47 13.6124 1208.58 12.996C1208.65 12.6111 1208.77 12.2385 1208.95 11.8891C1209.31 11.1936 1209.88 10.6296 1210.57 10.2791C1210.93 10.1033 1211.3 9.97747 1211.69 9.90529C1212.09 9.83335 1212.49 9.79366 1212.89 9.78659C1213.27 9.77509 1213.76 9.7766 1214.15 9.7766H1224.21H1224.63C1224.74 9.7766 1224.85 9.77659 1224.95 9.77779C1225.53 9.76766 1226.1 9.8103 1226.67 9.90519C1227.02 9.97279 1227.36 10.0836 1227.68 10.2352C1227.41 10.5213 1227.18 10.8429 1227 11.1909C1226.8 11.587 1226.66 12.0094 1226.58 12.4455C1226.48 13.0605 1226.43 13.684 1226.45 14.3075V14.6042V48.1442V48.4392C1226.43 49.0632 1226.48 49.6872 1226.58 50.3027C1226.66 50.7394 1226.8 51.1623 1227 51.5589ZM1220.82 15.5282C1220.82 15.2489 1220.82 15.0547 1220.82 14.8921C1220.82 14.7321 1220.82 14.5999 1220.82 14.4785C1220.81 14.2402 1220.79 14.0028 1220.74 13.7692C1220.69 13.5254 1220.6 13.2899 1220.49 13.0692C1220.25 12.6131 1219.87 12.2405 1219.42 12.0001C1219.2 11.8846 1218.96 11.8 1218.72 11.7487C1218.48 11.7008 1218.25 11.6741 1218.01 11.6687C1217.89 11.6645 1217.75 11.663 1217.59 11.6624C1217.43 11.6618 1217.24 11.6624 1216.96 11.6624H1214.22C1213.94 11.6624 1213.74 11.6624 1213.58 11.6624C1213.42 11.663 1213.29 11.6645 1213.17 11.6687C1212.93 11.674 1212.69 11.7008 1212.46 11.7487C1212.22 11.8 1211.98 11.8846 1211.76 12.0001C1211.3 12.2408 1210.93 12.6138 1210.69 13.0701C1210.57 13.2908 1210.49 13.5263 1210.44 13.7701C1210.39 14.0037 1210.36 14.241 1210.36 14.4794C1210.35 14.6008 1210.35 14.7332 1210.35 14.893V15.5291V18.6751V19.3111C1210.35 19.4711 1210.35 19.6033 1210.36 19.7248C1210.36 19.9631 1210.39 20.2005 1210.44 20.434C1210.49 20.6778 1210.57 20.9133 1210.69 21.134C1210.93 21.5901 1211.3 21.9629 1211.76 22.2033C1211.98 22.3189 1212.22 22.4035 1212.46 22.4547C1212.69 22.5026 1212.93 22.5293 1213.17 22.5347C1213.29 22.5389 1213.42 22.5403 1213.58 22.541C1213.75 22.5416 1213.94 22.541 1214.22 22.541H1216.96H1217.59C1217.75 22.5403 1217.89 22.5389 1218.01 22.5347C1218.25 22.5293 1218.48 22.5025 1218.72 22.4547C1218.96 22.4035 1219.2 22.3189 1219.42 22.2033C1219.87 21.9629 1220.25 21.5901 1220.49 21.134C1220.6 20.9133 1220.69 20.6778 1220.74 20.434C1220.79 20.2004 1220.81 19.9631 1220.82 19.7248C1220.82 19.6033 1220.82 19.471 1220.82 19.3111C1220.83 19.1486 1220.83 18.9543 1220.83 18.6751L1220.82 15.5282ZM1228.17 51.5482C1228.06 51.4078 1227.97 51.2597 1227.9 51.1051C1227.82 50.9496 1227.75 50.7885 1227.69 50.6231C1227.75 50.7886 1227.82 50.9497 1227.9 51.1052C1227.97 51.2597 1228.06 51.4078 1228.17 51.5481L1228.17 51.5482ZM1232.3 10.7501H1232.42H1232.53H1243.33H1243.7L1243.98 10.7511C1244.43 10.7425 1244.88 10.7745 1245.33 10.8468C1245.58 10.8938 1245.83 10.9762 1246.06 11.0918C1246.49 11.3116 1246.85 11.6644 1247.06 12.0988C1247.18 12.3297 1247.26 12.5758 1247.31 12.8298C1247.39 13.3213 1247.42 13.819 1247.41 14.3165V14.6047V47.9201V48.4348C1247.42 48.9317 1247.39 49.4287 1247.31 49.9197C1247.26 50.1738 1247.18 50.4201 1247.06 50.6512C1246.84 51.0857 1246.49 51.4386 1246.06 51.6583C1245.83 51.7738 1245.58 51.8562 1245.33 51.9031C1245.03 51.9575 1244.72 51.9871 1244.41 51.9916C1244.16 51.9995 1243.84 52.0001 1243.55 52.0001H1243.44H1243.33H1232.53H1232.16L1231.87 51.9991C1231.42 52.0077 1230.97 51.9757 1230.53 51.9033C1230.28 51.8564 1230.03 51.774 1229.8 51.6585C1229.36 51.4388 1229.01 51.0859 1228.79 50.6514C1228.68 50.4204 1228.59 50.1744 1228.55 49.9204C1228.47 49.43 1228.44 48.9335 1228.45 48.4372V48.1455V14.6055V14.3155C1228.44 13.8184 1228.47 13.3212 1228.55 12.8301C1228.59 12.576 1228.68 12.3297 1228.79 12.0986C1229.01 11.6645 1229.36 11.3119 1229.8 11.0921C1230.03 10.9766 1230.28 10.8941 1230.53 10.8471C1230.83 10.7927 1231.14 10.7631 1231.44 10.7586C1231.7 10.7507 1232.01 10.7501 1232.3 10.7501ZM1232.3 9.75009C1232 9.75009 1231.67 9.75089 1231.41 9.75909C1231.05 9.76541 1230.69 9.80103 1230.34 9.86559C1229.99 9.93044 1229.66 10.0433 1229.34 10.2009C1228.72 10.5167 1228.22 11.0226 1227.9 11.6451C1227.74 11.9589 1227.63 12.2931 1227.57 12.6382C1227.47 13.1912 1227.44 13.7515 1227.45 14.3117C1227.45 14.4087 1227.45 14.5064 1227.45 14.6049V48.1449V48.4382C1227.44 48.9984 1227.47 49.5586 1227.57 50.1116C1227.63 50.4567 1227.74 50.7909 1227.9 51.1047C1228.22 51.7273 1228.72 52.2332 1229.34 52.5489C1229.66 52.7065 1229.99 52.8194 1230.34 52.8842C1230.84 52.9693 1231.35 53.0076 1231.86 52.9985C1231.96 52.9991 1232.06 52.9994 1232.16 52.9995H1232.53H1243.33H1243.55C1243.85 52.9995 1244.18 52.9987 1244.45 52.9905C1244.81 52.9841 1245.16 52.9485 1245.52 52.884C1245.86 52.8193 1246.2 52.7064 1246.51 52.5487C1247.13 52.2331 1247.64 51.7272 1247.96 51.1045C1248.11 50.7907 1248.23 50.4565 1248.29 50.1114C1248.38 49.5584 1248.42 48.9982 1248.41 48.438V47.9208V14.6049C1248.41 14.5064 1248.41 14.4086 1248.41 14.3117C1248.42 13.7515 1248.38 13.1912 1248.29 12.6382C1248.23 12.2931 1248.11 11.9589 1247.96 11.6451C1247.64 11.0224 1247.13 10.5165 1246.51 10.2009C1246.2 10.0433 1245.86 9.93039 1245.52 9.86559C1245.01 9.78052 1244.5 9.74226 1243.99 9.7513C1243.89 9.7507 1243.8 9.75036 1243.7 9.75029H1243.33H1232.53H1232.3V9.75009ZM1240.03 11.2601H1235.86C1235.62 11.2626 1235.39 11.36 1235.22 11.5311C1235.05 11.7022 1234.95 11.9331 1234.95 12.1738C1234.95 12.4145 1235.05 12.6455 1235.22 12.8166C1235.39 12.9877 1235.62 13.0851 1235.86 13.0876H1240.03C1240.15 13.0889 1240.27 13.0662 1240.38 13.0208C1240.5 12.9755 1240.6 12.9083 1240.68 12.8234C1240.77 12.7384 1240.84 12.6372 1240.88 12.5257C1240.93 12.4143 1240.95 12.2947 1240.95 12.1738C1240.95 12.053 1240.93 11.9334 1240.88 11.8219C1240.84 11.7105 1240.77 11.6093 1240.68 11.5243C1240.6 11.4393 1240.5 11.3722 1240.38 11.3269C1240.27 11.2815 1240.15 11.2588 1240.03 11.2601ZM1240.08 12.6238C1239.99 12.6238 1239.91 12.5974 1239.83 12.548C1239.76 12.4985 1239.7 12.4282 1239.67 12.346C1239.63 12.2638 1239.62 12.1733 1239.64 12.086C1239.66 11.9987 1239.7 11.9185 1239.77 11.8556C1239.83 11.7927 1239.91 11.7498 1240 11.7324C1240.08 11.7151 1240.17 11.724 1240.26 11.758C1240.34 11.7921 1240.41 11.8498 1240.46 11.9238C1240.51 11.9978 1240.53 12.0848 1240.53 12.1738C1240.53 12.2329 1240.52 12.2914 1240.5 12.346C1240.48 12.4006 1240.44 12.4503 1240.4 12.4921C1240.36 12.5339 1240.31 12.567 1240.26 12.5896C1240.2 12.6123 1240.14 12.6239 1240.08 12.6239V12.6238Z" fill="#1D1D1F"/>
</g>
<path d="M1206.43 76.1992C1208.31 76.1992 1209.55 75.2148 1209.55 73.6328V73.627C1209.55 72.4082 1208.85 71.6992 1207.09 71.3066L1206.15 71.0957C1205 70.8438 1204.54 70.3867 1204.54 69.7129V69.707C1204.54 68.8223 1205.35 68.3242 1206.41 68.3184C1207.51 68.3125 1208.21 68.8633 1208.33 69.6074L1208.34 69.6836H1209.4L1209.39 69.6016C1209.3 68.3418 1208.13 67.3457 1206.44 67.3457C1204.69 67.3457 1203.47 68.3359 1203.46 69.7363V69.7422C1203.46 70.9668 1204.19 71.7461 1205.89 72.1211L1206.82 72.3262C1207.99 72.584 1208.47 73.0645 1208.47 73.7676V73.7734C1208.47 74.6348 1207.63 75.2266 1206.49 75.2266C1205.27 75.2266 1204.39 74.6934 1204.31 73.8496L1204.31 73.7852H1203.25L1203.26 73.8496C1203.38 75.2266 1204.57 76.1992 1206.43 76.1992ZM1211.12 76H1212.14V72.2617C1212.14 71.1543 1212.78 70.4746 1213.78 70.4746C1214.79 70.4746 1215.26 71.0195 1215.26 72.1562V76H1216.28V71.9102C1216.28 70.4102 1215.49 69.5723 1214.07 69.5723C1213.14 69.5723 1212.55 69.9648 1212.23 70.6328H1212.14V67.1758H1211.12V76ZM1220.6 76.1113C1222.4 76.1113 1223.51 74.8691 1223.51 72.8477V72.8359C1223.51 70.8086 1222.4 69.5723 1220.6 69.5723C1218.8 69.5723 1217.69 70.8086 1217.69 72.8359V72.8477C1217.69 74.8691 1218.8 76.1113 1220.6 76.1113ZM1220.6 75.209C1219.41 75.209 1218.73 74.3359 1218.73 72.8477V72.8359C1218.73 71.3418 1219.41 70.4746 1220.6 70.4746C1221.8 70.4746 1222.47 71.3418 1222.47 72.8359V72.8477C1222.47 74.3359 1221.8 75.209 1220.6 75.209ZM1224.97 78.1094H1225.99V75.0039H1226.09C1226.43 75.6777 1227.19 76.1113 1228.06 76.1113C1229.66 76.1113 1230.71 74.8281 1230.71 72.8477V72.8359C1230.71 70.8672 1229.66 69.5723 1228.06 69.5723C1227.18 69.5723 1226.47 69.9883 1226.09 70.6914H1225.99V69.6836H1224.97V78.1094ZM1227.82 75.209C1226.67 75.209 1225.97 74.3066 1225.97 72.8477V72.8359C1225.97 71.377 1226.67 70.4746 1227.82 70.4746C1228.98 70.4746 1229.66 71.3652 1229.66 72.8359V72.8477C1229.66 74.3184 1228.98 75.209 1227.82 75.209ZM1235.97 68.4648C1236.36 68.4648 1236.68 68.1484 1236.68 67.7617C1236.68 67.375 1236.36 67.0586 1235.97 67.0586C1235.59 67.0586 1235.27 67.375 1235.27 67.7617C1235.27 68.1484 1235.59 68.4648 1235.97 68.4648ZM1235.46 76H1236.48V69.6836H1235.46V76ZM1238.41 76H1239.46V72.9824H1241.6C1243.18 72.9824 1244.31 71.8633 1244.31 70.2578V70.2461C1244.31 68.6406 1243.18 67.5449 1241.6 67.5449H1238.41V76ZM1241.33 68.4824C1242.53 68.4824 1243.23 69.1445 1243.23 70.2578V70.2695C1243.23 71.3828 1242.53 72.0449 1241.33 72.0449H1239.46V68.4824H1241.33ZM1245.85 76H1246.87V72.2617C1246.87 71.1543 1247.5 70.4746 1248.51 70.4746C1249.52 70.4746 1249.99 71.0195 1249.99 72.1562V76H1251.01V71.9102C1251.01 70.4102 1250.22 69.5723 1248.8 69.5723C1247.87 69.5723 1247.28 69.9648 1246.96 70.6328H1246.87V67.1758H1245.85V76ZM1255.33 76.1113C1257.13 76.1113 1258.24 74.8691 1258.24 72.8477V72.8359C1258.24 70.8086 1257.13 69.5723 1255.33 69.5723C1253.53 69.5723 1252.42 70.8086 1252.42 72.8359V72.8477C1252.42 74.8691 1253.53 76.1113 1255.33 76.1113ZM1255.33 75.209C1254.13 75.209 1253.46 74.3359 1253.46 72.8477V72.8359C1253.46 71.3418 1254.13 70.4746 1255.33 70.4746C1256.53 70.4746 1257.2 71.3418 1257.2 72.8359V72.8477C1257.2 74.3359 1256.53 75.209 1255.33 75.209ZM1259.7 76H1260.72V72.2617C1260.72 71.1543 1261.36 70.4746 1262.37 70.4746C1263.38 70.4746 1263.85 71.0195 1263.85 72.1562V76H1264.87V71.9102C1264.87 70.4102 1264.08 69.5723 1262.66 69.5723C1261.73 69.5723 1261.13 69.9648 1260.82 70.6328H1260.72V69.6836H1259.7V76ZM1269.17 76.1113C1270.66 76.1113 1271.56 75.2676 1271.78 74.4121L1271.79 74.3652H1270.77L1270.75 74.418C1270.58 74.7988 1270.05 75.2031 1269.19 75.2031C1268.07 75.2031 1267.35 74.4414 1267.32 73.1348H1271.87V72.7363C1271.87 70.8496 1270.82 69.5723 1269.11 69.5723C1267.39 69.5723 1266.28 70.9082 1266.28 72.8594V72.8652C1266.28 74.8457 1267.37 76.1113 1269.17 76.1113ZM1269.1 70.4805C1270.03 70.4805 1270.72 71.0723 1270.83 72.3203H1267.34C1267.45 71.1191 1268.16 70.4805 1269.1 70.4805Z" fill="#1D1D1F"/>
<defs>
<clipPath id="clip0_2_3299">
<rect width="40" height="54" fill="white" transform="translate(189.766 3)"/>
</clipPath>
<clipPath id="clip1_2_3299">
<rect width="38" height="54" fill="white" transform="translate(296.375 3)"/>
</clipPath>
<clipPath id="clip2_2_3299">
<rect width="36" height="54" fill="white" transform="translate(391.875 3)"/>
</clipPath>
<clipPath id="clip3_2_3299">
<rect width="19" height="54" fill="white" transform="translate(495.641 3)"/>
</clipPath>
<clipPath id="clip4_2_3299">
<rect width="22" height="54" fill="white" transform="translate(589.25 3)"/>
</clipPath>
<clipPath id="clip5_2_3299">
<rect width="45" height="54" fill="white" transform="translate(670.266 3)"/>
</clipPath>
<clipPath id="clip6_2_3299">
<rect width="39" height="54" fill="white" transform="translate(760.422 3)"/>
</clipPath>
<clipPath id="clip7_2_3299">
<rect width="29" height="54" fill="white" transform="translate(844.625 3)"/>
</clipPath>
<clipPath id="clip8_2_3299">
<rect width="40" height="54" fill="white" transform="translate(930.297 3)"/>
</clipPath>
<clipPath id="clip9_2_3299">
<rect width="36" height="54" fill="white" transform="translate(1037.08 3)"/>
</clipPath>
<clipPath id="clip10_2_3299">
<rect width="32" height="54" fill="white" transform="translate(1128.25 3)"/>
</clipPath>
<clipPath id="clip11_2_3299">
<rect width="58" height="54" fill="white" transform="translate(1208.44 3)"/>
</clipPath>
</defs>
</svg>
